<svg width="375" height="277" viewBox="0 0 375 277" fill="none" xmlns="http://www.w3.org/2000/svg">
<g opacity="0.2">
<path d="M-2.2036 -15.3839L10.0967 -15.3839L16.2469 -4.73154L10.0967 5.92084H-2.2036L-8.35375 -4.73154L-2.2036 -15.3839Z" stroke="#5D5FEF" stroke-width="0.503643"/>
<path d="M-2.2036 32.9657L10.0967 32.9657L16.2469 43.6181L10.0967 54.2704H-2.2036L-8.35375 43.6181L-2.2036 32.9657Z" stroke="#5D5FEF" stroke-width="0.503643"/>
<path d="M-2.2036 81.3153L10.0967 81.3153L16.2469 91.9677L10.0967 102.62H-2.2036L-8.35375 91.9677L-2.2036 81.3153Z" stroke="#5D5FEF" stroke-width="0.503643"/>
<path d="M-2.2036 129.665L10.0967 129.665L16.2469 140.318L10.0967 150.97H-2.2036L-8.35375 140.318L-2.2036 129.665Z" stroke="#5D5FEF" stroke-width="0.503643"/>
<path d="M-2.2036 178.015L10.0967 178.015L16.2469 188.667L10.0967 199.32H-2.2036L-8.35375 188.667L-2.2036 178.015Z" stroke="#5D5FEF" stroke-width="0.503643"/>
<path d="M40.353 -15.3839L52.6533 -15.3839L58.8035 -4.73154L52.6533 5.92084H40.353L34.2029 -4.73154L40.353 -15.3839Z" stroke="#5D5FEF" stroke-width="0.503643"/>
<path d="M40.353 32.9657L52.6533 32.9657L58.8035 43.6181L52.6533 54.2704H40.353L34.2029 43.6181L40.353 32.9657Z" stroke="#5D5FEF" stroke-width="0.503643"/>
<path d="M40.353 81.3153L52.6533 81.3153L58.8035 91.9677L52.6533 102.62H40.353L34.2029 91.9677L40.353 81.3153Z" stroke="#5D5FEF" stroke-width="0.503643"/>
<path d="M40.353 129.665L52.6533 129.665L58.8035 140.318L52.6533 150.97H40.353L34.2029 140.318L40.353 129.665Z" stroke="#5D5FEF" stroke-width="0.503643"/>
<path d="M40.353 178.015L52.6533 178.015L58.8035 188.667L52.6533 199.32H40.353L34.2029 188.667L40.353 178.015Z" stroke="#5D5FEF" stroke-width="0.503643"/>
<path d="M82.9116 -15.3839L95.2119 -15.3839L101.362 -4.73154L95.2119 5.92084H82.9116L76.7615 -4.73154L82.9116 -15.3839Z" stroke="#5D5FEF" stroke-width="0.503643"/>
<path d="M82.9116 32.9657L95.2119 32.9657L101.362 43.6181L95.2119 54.2704H82.9116L76.7615 43.6181L82.9116 32.9657Z" stroke="#5D5FEF" stroke-width="0.503643"/>
<path d="M82.9116 81.3153L95.2119 81.3153L101.362 91.9677L95.2119 102.62H82.9116L76.7615 91.9677L82.9116 81.3153Z" stroke="#5D5FEF" stroke-width="0.503643"/>
<path d="M82.9116 129.665L95.2119 129.665L101.362 140.318L95.2119 150.97H82.9116L76.7615 140.318L82.9116 129.665Z" stroke="#5D5FEF" stroke-width="0.503643"/>
<path d="M82.9116 178.015L95.2119 178.015L101.362 188.667L95.2119 199.32H82.9116L76.7615 188.667L82.9116 178.015Z" stroke="#5D5FEF" stroke-width="0.503643"/>
<path d="M125.469 -15.3839L137.77 -15.3839L143.92 -4.73154L137.77 5.92084H125.469L119.319 -4.73154L125.469 -15.3839Z" stroke="#5D5FEF" stroke-width="0.503643"/>
<path d="M125.469 32.9657L137.77 32.9657L143.92 43.6181L137.77 54.2704H125.469L119.319 43.6181L125.469 32.9657Z" stroke="#5D5FEF" stroke-width="0.503643"/>
<path d="M125.469 81.3153L137.77 81.3153L143.92 91.9677L137.77 102.62H125.469L119.319 91.9677L125.469 81.3153Z" stroke="#5D5FEF" stroke-width="0.503643"/>
<path d="M125.469 129.665L137.77 129.665L143.92 140.318L137.77 150.97H125.469L119.319 140.318L125.469 129.665Z" stroke="#5D5FEF" stroke-width="0.503643"/>
<path d="M125.469 178.015L137.77 178.015L143.92 188.667L137.77 199.32H125.469L119.319 188.667L125.469 178.015Z" stroke="#5D5FEF" stroke-width="0.503643"/>
<path d="M168.027 -15.3839L180.327 -15.3839L186.477 -4.73154L180.327 5.92084H168.027L161.877 -4.73154L168.027 -15.3839Z" stroke="#5D5FEF" stroke-width="0.503643"/>
<path d="M168.027 32.9657L180.327 32.9657L186.477 43.6181L180.327 54.2704H168.027L161.877 43.6181L168.027 32.9657Z" stroke="#5D5FEF" stroke-width="0.503643"/>
<path d="M168.027 81.3153L180.327 81.3153L186.477 91.9677L180.327 102.62H168.027L161.877 91.9677L168.027 81.3153Z" stroke="#5D5FEF" stroke-width="0.503643"/>
<path d="M168.027 129.665L180.327 129.665L186.477 140.318L180.327 150.97H168.027L161.877 140.318L168.027 129.665Z" stroke="#5D5FEF" stroke-width="0.503643"/>
<path d="M168.027 178.015L180.327 178.015L186.477 188.667L180.327 199.32H168.027L161.877 188.667L168.027 178.015Z" stroke="#5D5FEF" stroke-width="0.503643"/>
<path d="M210.585 -15.3839L222.886 -15.3839L229.036 -4.73154L222.886 5.92084H210.585L204.435 -4.73154L210.585 -15.3839Z" stroke="#5D5FEF" stroke-width="0.503643"/>
<path d="M253.142 -15.3839L265.442 -15.3839L271.593 -4.73154L265.442 5.92084H253.142L246.992 -4.73154L253.142 -15.3839Z" stroke="#5D5FEF" stroke-width="0.503643"/>
<path d="M295.701 -15.3839L308.001 -15.3839L314.151 -4.73154L308.001 5.92084H295.701L289.551 -4.73154L295.701 -15.3839Z" stroke="#5D5FEF" stroke-width="0.503643"/>
<path d="M338.259 -15.3839L350.56 -15.3839L356.71 -4.73154L350.56 5.92084H338.259L332.109 -4.73154L338.259 -15.3839Z" stroke="#5D5FEF" stroke-width="0.503643"/>
<path d="M380.817 -15.3839L393.117 -15.3839L399.267 -4.73154L393.117 5.92084H380.817L374.667 -4.73154L380.817 -15.3839Z" stroke="#5D5FEF" stroke-width="0.503643"/>
<path d="M210.585 32.9657L222.886 32.9657L229.036 43.6181L222.886 54.2704H210.585L204.435 43.6181L210.585 32.9657Z" stroke="#5D5FEF" stroke-width="0.503643"/>
<path d="M253.142 32.9657L265.442 32.9657L271.593 43.6181L265.442 54.2704H253.142L246.992 43.6181L253.142 32.9657Z" stroke="#5D5FEF" stroke-width="0.503643"/>
<path d="M295.701 32.9657L308.001 32.9657L314.151 43.6181L308.001 54.2704H295.701L289.551 43.6181L295.701 32.9657Z" stroke="#5D5FEF" stroke-width="0.503643"/>
<path d="M338.259 32.9657L350.56 32.9657L356.71 43.6181L350.56 54.2704H338.259L332.109 43.6181L338.259 32.9657Z" stroke="#5D5FEF" stroke-width="0.503643"/>
<path d="M380.817 32.9657L393.117 32.9657L399.267 43.6181L393.117 54.2704H380.817L374.667 43.6181L380.817 32.9657Z" stroke="#5D5FEF" stroke-width="0.503643"/>
<path d="M210.585 81.3153L222.886 81.3153L229.036 91.9677L222.886 102.62H210.585L204.435 91.9677L210.585 81.3153Z" stroke="#5D5FEF" stroke-width="0.503643"/>
<path d="M253.142 81.3153L265.442 81.3153L271.593 91.9677L265.442 102.62H253.142L246.992 91.9677L253.142 81.3153Z" stroke="#5D5FEF" stroke-width="0.503643"/>
<path d="M295.701 81.3153L308.001 81.3153L314.151 91.9677L308.001 102.62H295.701L289.551 91.9677L295.701 81.3153Z" stroke="#5D5FEF" stroke-width="0.503643"/>
<path d="M338.259 81.3153L350.56 81.3153L356.71 91.9677L350.56 102.62H338.259L332.109 91.9677L338.259 81.3153Z" stroke="#5D5FEF" stroke-width="0.503643"/>
<path d="M380.817 81.3153L393.117 81.3153L399.267 91.9677L393.117 102.62H380.817L374.667 91.9677L380.817 81.3153Z" stroke="#5D5FEF" stroke-width="0.503643"/>
<path d="M210.585 129.665L222.886 129.665L229.036 140.318L222.886 150.97H210.585L204.435 140.318L210.585 129.665Z" stroke="#5D5FEF" stroke-width="0.503643"/>
<path d="M253.142 129.665L265.442 129.665L271.593 140.318L265.442 150.97H253.142L246.992 140.318L253.142 129.665Z" stroke="#5D5FEF" stroke-width="0.503643"/>
<path d="M295.701 129.665L308.001 129.665L314.151 140.318L308.001 150.97H295.701L289.551 140.318L295.701 129.665Z" stroke="#5D5FEF" stroke-width="0.503643"/>
<path d="M338.259 129.665L350.56 129.665L356.71 140.318L350.56 150.97H338.259L332.109 140.318L338.259 129.665Z" stroke="#5D5FEF" stroke-width="0.503643"/>
<path d="M380.817 129.665L393.117 129.665L399.267 140.318L393.117 150.97H380.817L374.667 140.318L380.817 129.665Z" stroke="#5D5FEF" stroke-width="0.503643"/>
<path d="M210.585 178.015L222.886 178.015L229.036 188.667L222.886 199.32H210.585L204.435 188.667L210.585 178.015Z" stroke="#5D5FEF" stroke-width="0.503643"/>
<path d="M253.142 178.015L265.442 178.015L271.593 188.667L265.442 199.32H253.142L246.992 188.667L253.142 178.015Z" stroke="#5D5FEF" stroke-width="0.503643"/>
<path d="M295.701 178.015L308.001 178.015L314.151 188.667L308.001 199.32H295.701L289.551 188.667L295.701 178.015Z" stroke="#5D5FEF" stroke-width="0.503643"/>
<path d="M338.259 178.015L350.56 178.015L356.71 188.667L350.56 199.32H338.259L332.109 188.667L338.259 178.015Z" stroke="#5D5FEF" stroke-width="0.503643"/>
<path d="M380.817 178.015L393.117 178.015L399.267 188.667L393.117 199.32H380.817L374.667 188.667L380.817 178.015Z" stroke="#5D5FEF" stroke-width="0.503643"/>
<path d="M18.9487 20.8783L31.249 20.8783L37.3992 31.5307L31.249 42.183H18.9487L12.7986 31.5307L18.9487 20.8783Z" stroke="#5D5FEF" stroke-width="0.503643"/>
<path d="M18.9487 69.2284L31.249 69.2284L37.3992 79.8808L31.249 90.5331H18.9487L12.7986 79.8808L18.9487 69.2284Z" stroke="#5D5FEF" stroke-width="0.503643"/>
<path d="M18.9487 117.578L31.249 117.578L37.3992 128.23L31.249 138.883H18.9487L12.7986 128.23L18.9487 117.578Z" stroke="#5D5FEF" stroke-width="0.503643"/>
<path d="M18.9487 165.928L31.249 165.928L37.3992 176.58L31.249 187.232H18.9487L12.7986 176.58L18.9487 165.928Z" stroke="#5D5FEF" stroke-width="0.503643"/>
<path d="M18.9487 214.277L31.249 214.277L37.3992 224.93L31.249 235.582H18.9487L12.7986 224.93L18.9487 214.277Z" stroke="#5D5FEF" stroke-width="0.503643"/>
<path d="M18.9487 238.704L31.249 238.704L37.3992 249.356L31.249 260.009H18.9487L12.7986 249.356L18.9487 238.704Z" stroke="#5D5FEF" stroke-width="0.503643"/>
<path d="M18.9487 263.131L31.249 263.131L37.3992 273.783L31.249 284.435H18.9487L12.7986 273.783L18.9487 263.131Z" stroke="#5D5FEF" stroke-width="0.503643"/>
<path d="M61.5064 20.8783L73.8067 20.8783L79.9568 31.5307L73.8067 42.183H61.5064L55.3562 31.5307L61.5064 20.8783Z" stroke="#5D5FEF" stroke-width="0.503643"/>
<path d="M61.5064 69.2284L73.8067 69.2284L79.9568 79.8808L73.8067 90.5331H61.5064L55.3562 79.8808L61.5064 69.2284Z" stroke="#5D5FEF" stroke-width="0.503643"/>
<path d="M61.5064 117.578L73.8067 117.578L79.9568 128.23L73.8067 138.883H61.5064L55.3562 128.23L61.5064 117.578Z" stroke="#5D5FEF" stroke-width="0.503643"/>
<path d="M61.5064 165.928L73.8067 165.928L79.9568 176.58L73.8067 187.232H61.5064L55.3562 176.58L61.5064 165.928Z" stroke="#5D5FEF" stroke-width="0.503643"/>
<path d="M61.5064 214.277L73.8067 214.277L79.9568 224.93L73.8067 235.582H61.5064L55.3562 224.93L61.5064 214.277Z" stroke="#5D5FEF" stroke-width="0.503643"/>
<path d="M61.5064 238.704L73.8067 238.704L79.9568 249.356L73.8067 260.009H61.5064L55.3562 249.356L61.5064 238.704Z" stroke="#5D5FEF" stroke-width="0.503643"/>
<path d="M61.5064 263.131L73.8067 263.131L79.9568 273.783L73.8067 284.435H61.5064L55.3562 273.783L61.5064 263.131Z" stroke="#5D5FEF" stroke-width="0.503643"/>
<path d="M104.065 20.8783L116.365 20.8783L122.515 31.5307L116.365 42.183H104.065L97.9148 31.5307L104.065 20.8783Z" stroke="#5D5FEF" stroke-width="0.503643"/>
<path d="M104.065 69.2284L116.365 69.2284L122.515 79.8808L116.365 90.5331H104.065L97.9148 79.8808L104.065 69.2284Z" stroke="#5D5FEF" stroke-width="0.503643"/>
<path d="M104.065 117.578L116.365 117.578L122.515 128.23L116.365 138.883H104.065L97.9148 128.23L104.065 117.578Z" stroke="#5D5FEF" stroke-width="0.503643"/>
<path d="M104.065 165.928L116.365 165.928L122.515 176.58L116.365 187.232H104.065L97.9148 176.58L104.065 165.928Z" stroke="#5D5FEF" stroke-width="0.503643"/>
<path d="M104.065 214.277L116.365 214.277L122.515 224.93L116.365 235.582H104.065L97.9148 224.93L104.065 214.277Z" stroke="#5D5FEF" stroke-width="0.503643"/>
<path d="M104.065 238.704L116.365 238.704L122.515 249.356L116.365 260.009H104.065L97.9148 249.356L104.065 238.704Z" stroke="#5D5FEF" stroke-width="0.503643"/>
<path d="M104.065 263.131L116.365 263.131L122.515 273.783L116.365 284.435H104.065L97.9148 273.783L104.065 263.131Z" stroke="#5D5FEF" stroke-width="0.503643"/>
<path d="M146.623 20.8783L158.923 20.8783L165.073 31.5307L158.923 42.183H146.623L140.472 31.5307L146.623 20.8783Z" stroke="#5D5FEF" stroke-width="0.503643"/>
<path d="M146.623 69.2284L158.923 69.2284L165.073 79.8808L158.923 90.5331H146.623L140.472 79.8808L146.623 69.2284Z" stroke="#5D5FEF" stroke-width="0.503643"/>
<path d="M146.623 117.578L158.923 117.578L165.073 128.23L158.923 138.883H146.623L140.472 128.23L146.623 117.578Z" stroke="#5D5FEF" stroke-width="0.503643"/>
<path d="M146.623 165.928L158.923 165.928L165.073 176.58L158.923 187.232H146.623L140.472 176.58L146.623 165.928Z" stroke="#5D5FEF" stroke-width="0.503643"/>
<path d="M146.623 214.277L158.923 214.277L165.073 224.93L158.923 235.582H146.623L140.472 224.93L146.623 214.277Z" stroke="#5D5FEF" stroke-width="0.503643"/>
<path d="M146.623 238.704L158.923 238.704L165.073 249.356L158.923 260.009H146.623L140.472 249.356L146.623 238.704Z" stroke="#5D5FEF" stroke-width="0.503643"/>
<path d="M146.623 263.131L158.923 263.131L165.073 273.783L158.923 284.435H146.623L140.472 273.783L146.623 263.131Z" stroke="#5D5FEF" stroke-width="0.503643"/>
<path d="M189.18 20.8783L201.48 20.8783L207.631 31.5307L201.48 42.183H189.18L183.03 31.5307L189.18 20.8783Z" stroke="#5D5FEF" stroke-width="0.503643"/>
<path d="M189.18 69.2284L201.48 69.2284L207.631 79.8808L201.48 90.5331H189.18L183.03 79.8808L189.18 69.2284Z" stroke="#5D5FEF" stroke-width="0.503643"/>
<path d="M189.18 117.578L201.48 117.578L207.631 128.23L201.48 138.883H189.18L183.03 128.23L189.18 117.578Z" stroke="#5D5FEF" stroke-width="0.503643"/>
<path d="M189.18 165.928L201.48 165.928L207.631 176.58L201.48 187.232H189.18L183.03 176.58L189.18 165.928Z" stroke="#5D5FEF" stroke-width="0.503643"/>
<path d="M189.18 214.277L201.48 214.277L207.631 224.93L201.48 235.582H189.18L183.03 224.93L189.18 214.277Z" stroke="#5D5FEF" stroke-width="0.503643"/>
<path d="M189.18 238.704L201.48 238.704L207.631 249.356L201.48 260.009H189.18L183.03 249.356L189.18 238.704Z" stroke="#5D5FEF" stroke-width="0.503643"/>
<path d="M189.18 263.131L201.48 263.131L207.631 273.783L201.48 284.435H189.18L183.03 273.783L189.18 263.131Z" stroke="#5D5FEF" stroke-width="0.503643"/>
<path d="M231.738 20.8783L244.038 20.8783L250.188 31.5307L244.038 42.183H231.738L225.588 31.5307L231.738 20.8783Z" stroke="#5D5FEF" stroke-width="0.503643"/>
<path d="M274.295 20.8783L286.596 20.8783L292.746 31.5307L286.596 42.183H274.295L268.145 31.5307L274.295 20.8783Z" stroke="#5D5FEF" stroke-width="0.503643"/>
<path d="M316.854 20.8783L329.154 20.8783L335.304 31.5307L329.154 42.183H316.854L310.704 31.5307L316.854 20.8783Z" stroke="#5D5FEF" stroke-width="0.503643"/>
<path d="M359.412 20.8783L371.712 20.8783L377.862 31.5307L371.712 42.183H359.412L353.261 31.5307L359.412 20.8783Z" stroke="#5D5FEF" stroke-width="0.503643"/>
<path d="M231.738 69.2284L244.038 69.2284L250.188 79.8808L244.038 90.5331H231.738L225.588 79.8808L231.738 69.2284Z" stroke="#5D5FEF" stroke-width="0.503643"/>
<path d="M274.295 69.2284L286.596 69.2284L292.746 79.8808L286.596 90.5331H274.295L268.145 79.8808L274.295 69.2284Z" stroke="#5D5FEF" stroke-width="0.503643"/>
<path d="M316.854 69.2284L329.154 69.2284L335.304 79.8808L329.154 90.5331H316.854L310.704 79.8808L316.854 69.2284Z" stroke="#5D5FEF" stroke-width="0.503643"/>
<path d="M359.412 69.2284L371.712 69.2284L377.862 79.8808L371.712 90.5331H359.412L353.261 79.8808L359.412 69.2284Z" stroke="#5D5FEF" stroke-width="0.503643"/>
<path d="M231.738 117.578L244.038 117.578L250.188 128.23L244.038 138.883H231.738L225.588 128.23L231.738 117.578Z" stroke="#5D5FEF" stroke-width="0.503643"/>
<path d="M274.295 117.578L286.596 117.578L292.746 128.23L286.596 138.883H274.295L268.145 128.23L274.295 117.578Z" stroke="#5D5FEF" stroke-width="0.503643"/>
<path d="M316.854 117.578L329.154 117.578L335.304 128.23L329.154 138.883H316.854L310.704 128.23L316.854 117.578Z" stroke="#5D5FEF" stroke-width="0.503643"/>
<path d="M359.412 117.578L371.712 117.578L377.862 128.23L371.712 138.883H359.412L353.261 128.23L359.412 117.578Z" stroke="#5D5FEF" stroke-width="0.503643"/>
<path d="M231.738 165.928L244.038 165.928L250.188 176.58L244.038 187.232H231.738L225.588 176.58L231.738 165.928Z" stroke="#5D5FEF" stroke-width="0.503643"/>
<path d="M274.295 165.928L286.596 165.928L292.746 176.58L286.596 187.232H274.295L268.145 176.58L274.295 165.928Z" stroke="#5D5FEF" stroke-width="0.503643"/>
<path d="M316.854 165.928L329.154 165.928L335.304 176.58L329.154 187.232H316.854L310.704 176.58L316.854 165.928Z" stroke="#5D5FEF" stroke-width="0.503643"/>
<path d="M359.412 165.928L371.712 165.928L377.862 176.58L371.712 187.232H359.412L353.261 176.58L359.412 165.928Z" stroke="#5D5FEF" stroke-width="0.503643"/>
<path d="M231.738 214.277L244.038 214.277L250.188 224.93L244.038 235.582H231.738L225.588 224.93L231.738 214.277Z" stroke="#5D5FEF" stroke-width="0.503643"/>
<path d="M231.738 238.704L244.038 238.704L250.188 249.356L244.038 260.009H231.738L225.588 249.356L231.738 238.704Z" stroke="#5D5FEF" stroke-width="0.503643"/>
<path d="M231.738 263.131L244.038 263.131L250.188 273.783L244.038 284.435H231.738L225.588 273.783L231.738 263.131Z" stroke="#5D5FEF" stroke-width="0.503643"/>
<path d="M274.295 214.277L286.596 214.277L292.746 224.93L286.596 235.582H274.295L268.145 224.93L274.295 214.277Z" stroke="#5D5FEF" stroke-width="0.503643"/>
<path d="M274.295 238.704L286.596 238.704L292.746 249.356L286.596 260.009H274.295L268.145 249.356L274.295 238.704Z" stroke="#5D5FEF" stroke-width="0.503643"/>
<path d="M274.295 263.131L286.596 263.131L292.746 273.783L286.596 284.435H274.295L268.145 273.783L274.295 263.131Z" stroke="#5D5FEF" stroke-width="0.503643"/>
<path d="M316.854 214.277L329.154 214.277L335.304 224.93L329.154 235.582H316.854L310.704 224.93L316.854 214.277Z" stroke="#5D5FEF" stroke-width="0.503643"/>
<path d="M316.854 238.704L329.154 238.704L335.304 249.356L329.154 260.009H316.854L310.704 249.356L316.854 238.704Z" stroke="#5D5FEF" stroke-width="0.503643"/>
<path d="M316.854 263.131L329.154 263.131L335.304 273.783L329.154 284.435H316.854L310.704 273.783L316.854 263.131Z" stroke="#5D5FEF" stroke-width="0.503643"/>
<path d="M359.412 214.277L371.712 214.277L377.862 224.93L371.712 235.582H359.412L353.261 224.93L359.412 214.277Z" stroke="#5D5FEF" stroke-width="0.503643"/>
<path d="M359.412 238.704L371.712 238.704L377.862 249.356L371.712 260.009H359.412L353.261 249.356L359.412 238.704Z" stroke="#5D5FEF" stroke-width="0.503643"/>
<path d="M359.412 263.131L371.712 263.131L377.862 273.783L371.712 284.435H359.412L353.261 273.783L359.412 263.131Z" stroke="#5D5FEF" stroke-width="0.503643"/>
<path d="M18.9487 -3.04457L31.249 -3.04457L37.3992 7.60781L31.249 18.2602H18.9487L12.7986 7.60781L18.9487 -3.04457Z" stroke="#5D5FEF" stroke-width="0.503643"/>
<path d="M18.9487 45.305L31.249 45.305L37.3992 55.9574L31.249 66.6098H18.9487L12.7986 55.9574L18.9487 45.305Z" stroke="#5D5FEF" stroke-width="0.503643"/>
<path d="M18.9487 93.6547L31.249 93.6547L37.3992 104.307L31.249 114.959H18.9487L12.7986 104.307L18.9487 93.6547Z" stroke="#5D5FEF" stroke-width="0.503643"/>
<path d="M18.9487 142.005L31.249 142.005L37.3992 152.657L31.249 163.31H18.9487L12.7986 152.657L18.9487 142.005Z" stroke="#5D5FEF" stroke-width="0.503643"/>
<path d="M18.9487 190.354L31.249 190.354L37.3992 201.007L31.249 211.659H18.9487L12.7986 201.007L18.9487 190.354Z" stroke="#5D5FEF" stroke-width="0.503643"/>
<path d="M61.5064 -3.04457L73.8067 -3.04457L79.9568 7.60781L73.8067 18.2602H61.5064L55.3562 7.60781L61.5064 -3.04457Z" stroke="#5D5FEF" stroke-width="0.503643"/>
<path d="M61.5064 45.305L73.8067 45.305L79.9568 55.9574L73.8067 66.6098H61.5064L55.3562 55.9574L61.5064 45.305Z" stroke="#5D5FEF" stroke-width="0.503643"/>
<path d="M61.5064 93.6547L73.8067 93.6547L79.9568 104.307L73.8067 114.959H61.5064L55.3562 104.307L61.5064 93.6547Z" stroke="#5D5FEF" stroke-width="0.503643"/>
<path d="M61.5064 142.005L73.8067 142.005L79.9568 152.657L73.8067 163.31H61.5064L55.3562 152.657L61.5064 142.005Z" stroke="#5D5FEF" stroke-width="0.503643"/>
<path d="M61.5064 190.354L73.8067 190.354L79.9568 201.007L73.8067 211.659H61.5064L55.3562 201.007L61.5064 190.354Z" stroke="#5D5FEF" stroke-width="0.503643"/>
<path d="M104.065 -3.04457L116.365 -3.04457L122.515 7.60781L116.365 18.2602H104.065L97.9148 7.60781L104.065 -3.04457Z" stroke="#5D5FEF" stroke-width="0.503643"/>
<path d="M104.065 45.305L116.365 45.305L122.515 55.9574L116.365 66.6098H104.065L97.9148 55.9574L104.065 45.305Z" stroke="#5D5FEF" stroke-width="0.503643"/>
<path d="M104.065 93.6547L116.365 93.6547L122.515 104.307L116.365 114.959H104.065L97.9148 104.307L104.065 93.6547Z" stroke="#5D5FEF" stroke-width="0.503643"/>
<path d="M104.065 142.005L116.365 142.005L122.515 152.657L116.365 163.31H104.065L97.9148 152.657L104.065 142.005Z" stroke="#5D5FEF" stroke-width="0.503643"/>
<path d="M104.065 190.354L116.365 190.354L122.515 201.007L116.365 211.659H104.065L97.9148 201.007L104.065 190.354Z" stroke="#5D5FEF" stroke-width="0.503643"/>
<path d="M146.623 -3.04457L158.923 -3.04457L165.073 7.60781L158.923 18.2602H146.623L140.472 7.60781L146.623 -3.04457Z" stroke="#5D5FEF" stroke-width="0.503643"/>
<path d="M146.623 45.305L158.923 45.305L165.073 55.9574L158.923 66.6098H146.623L140.472 55.9574L146.623 45.305Z" stroke="#5D5FEF" stroke-width="0.503643"/>
<path d="M146.623 93.6547L158.923 93.6547L165.073 104.307L158.923 114.959H146.623L140.472 104.307L146.623 93.6547Z" stroke="#5D5FEF" stroke-width="0.503643"/>
<path d="M146.623 142.005L158.923 142.005L165.073 152.657L158.923 163.31H146.623L140.472 152.657L146.623 142.005Z" stroke="#5D5FEF" stroke-width="0.503643"/>
<path d="M146.623 190.354L158.923 190.354L165.073 201.007L158.923 211.659H146.623L140.472 201.007L146.623 190.354Z" stroke="#5D5FEF" stroke-width="0.503643"/>
<path d="M189.18 -3.04457L201.48 -3.04457L207.631 7.60781L201.48 18.2602H189.18L183.03 7.60781L189.18 -3.04457Z" stroke="#5D5FEF" stroke-width="0.503643"/>
<path d="M189.18 45.305L201.48 45.305L207.631 55.9574L201.48 66.6098H189.18L183.03 55.9574L189.18 45.305Z" stroke="#5D5FEF" stroke-width="0.503643"/>
<path d="M189.18 93.6547L201.48 93.6547L207.631 104.307L201.48 114.959H189.18L183.03 104.307L189.18 93.6547Z" stroke="#5D5FEF" stroke-width="0.503643"/>
<path d="M189.18 142.005L201.48 142.005L207.631 152.657L201.48 163.31H189.18L183.03 152.657L189.18 142.005Z" stroke="#5D5FEF" stroke-width="0.503643"/>
<path d="M189.18 190.354L201.48 190.354L207.631 201.007L201.48 211.659H189.18L183.03 201.007L189.18 190.354Z" stroke="#5D5FEF" stroke-width="0.503643"/>
<path d="M231.738 -3.04457L244.038 -3.04457L250.188 7.60781L244.038 18.2602H231.738L225.588 7.60781L231.738 -3.04457Z" stroke="#5D5FEF" stroke-width="0.503643"/>
<path d="M274.295 -3.04457L286.596 -3.04457L292.746 7.60781L286.596 18.2602H274.295L268.145 7.60781L274.295 -3.04457Z" stroke="#5D5FEF" stroke-width="0.503643"/>
<path d="M316.854 -3.04457L329.154 -3.04457L335.304 7.60781L329.154 18.2602H316.854L310.704 7.60781L316.854 -3.04457Z" stroke="#5D5FEF" stroke-width="0.503643"/>
<path d="M359.412 -3.04457L371.712 -3.04457L377.862 7.60781L371.712 18.2602H359.412L353.261 7.60781L359.412 -3.04457Z" stroke="#5D5FEF" stroke-width="0.503643"/>
<path d="M231.738 45.305L244.038 45.305L250.188 55.9574L244.038 66.6098H231.738L225.588 55.9574L231.738 45.305Z" stroke="#5D5FEF" stroke-width="0.503643"/>
<path d="M274.295 45.305L286.596 45.305L292.746 55.9574L286.596 66.6098H274.295L268.145 55.9574L274.295 45.305Z" stroke="#5D5FEF" stroke-width="0.503643"/>
<path d="M316.854 45.305L329.154 45.305L335.304 55.9574L329.154 66.6098H316.854L310.704 55.9574L316.854 45.305Z" stroke="#5D5FEF" stroke-width="0.503643"/>
<path d="M359.412 45.305L371.712 45.305L377.862 55.9574L371.712 66.6098H359.412L353.261 55.9574L359.412 45.305Z" stroke="#5D5FEF" stroke-width="0.503643"/>
<path d="M231.738 93.6547L244.038 93.6547L250.188 104.307L244.038 114.959H231.738L225.588 104.307L231.738 93.6547Z" stroke="#5D5FEF" stroke-width="0.503643"/>
<path d="M274.295 93.6547L286.596 93.6547L292.746 104.307L286.596 114.959H274.295L268.145 104.307L274.295 93.6547Z" stroke="#5D5FEF" stroke-width="0.503643"/>
<path d="M316.854 93.6547L329.154 93.6547L335.304 104.307L329.154 114.959H316.854L310.704 104.307L316.854 93.6547Z" stroke="#5D5FEF" stroke-width="0.503643"/>
<path d="M359.412 93.6547L371.712 93.6547L377.862 104.307L371.712 114.959H359.412L353.261 104.307L359.412 93.6547Z" stroke="#5D5FEF" stroke-width="0.503643"/>
<path d="M231.738 142.005L244.038 142.005L250.188 152.657L244.038 163.31H231.738L225.588 152.657L231.738 142.005Z" stroke="#5D5FEF" stroke-width="0.503643"/>
<path d="M274.295 142.005L286.596 142.005L292.746 152.657L286.596 163.31H274.295L268.145 152.657L274.295 142.005Z" stroke="#5D5FEF" stroke-width="0.503643"/>
<path d="M316.854 142.005L329.154 142.005L335.304 152.657L329.154 163.31H316.854L310.704 152.657L316.854 142.005Z" stroke="#5D5FEF" stroke-width="0.503643"/>
<path d="M359.412 142.005L371.712 142.005L377.862 152.657L371.712 163.31H359.412L353.261 152.657L359.412 142.005Z" stroke="#5D5FEF" stroke-width="0.503643"/>
<path d="M231.738 190.354L244.038 190.354L250.188 201.007L244.038 211.659H231.738L225.588 201.007L231.738 190.354Z" stroke="#5D5FEF" stroke-width="0.503643"/>
<path d="M274.295 190.354L286.596 190.354L292.746 201.007L286.596 211.659H274.295L268.145 201.007L274.295 190.354Z" stroke="#5D5FEF" stroke-width="0.503643"/>
<path d="M316.854 190.354L329.154 190.354L335.304 201.007L329.154 211.659H316.854L310.704 201.007L316.854 190.354Z" stroke="#5D5FEF" stroke-width="0.503643"/>
<path d="M359.412 190.354L371.712 190.354L377.862 201.007L371.712 211.659H359.412L353.261 201.007L359.412 190.354Z" stroke="#5D5FEF" stroke-width="0.503643"/>
<path d="M-2.2036 8.79088L10.0967 8.79088L16.2469 19.4433L10.0967 30.0956H-2.2036L-8.35375 19.4433L-2.2036 8.79088Z" stroke="#5D5FEF" stroke-width="0.503643"/>
<path d="M-2.2036 57.1405L10.0967 57.1405L16.2469 67.7929L10.0967 78.4453H-2.2036L-8.35375 67.7929L-2.2036 57.1405Z" stroke="#5D5FEF" stroke-width="0.503643"/>
<path d="M-2.2036 105.491L10.0967 105.491L16.2469 116.143L10.0967 126.795H-2.2036L-8.35375 116.143L-2.2036 105.491Z" stroke="#5D5FEF" stroke-width="0.503643"/>
<path d="M-2.2036 153.84L10.0967 153.84L16.2469 164.493L10.0967 175.145H-2.2036L-8.35375 164.493L-2.2036 153.84Z" stroke="#5D5FEF" stroke-width="0.503643"/>
<path d="M-2.2036 202.19L10.0967 202.19L16.2469 212.843L10.0967 223.495H-2.2036L-8.35375 212.843L-2.2036 202.19Z" stroke="#5D5FEF" stroke-width="0.503643"/>
<path d="M-2.2036 226.617L10.0967 226.617L16.2469 237.269L10.0967 247.921H-2.2036L-8.35375 237.269L-2.2036 226.617Z" stroke="#5D5FEF" stroke-width="0.503643"/>
<path d="M-2.2036 251.043L10.0967 251.043L16.2469 261.696L10.0967 272.348H-2.2036L-8.35375 261.696L-2.2036 251.043Z" stroke="#5D5FEF" stroke-width="0.503643"/>
<path d="M-2.2036 275.47L10.0967 275.47L16.2469 286.122L10.0967 296.775H-2.2036L-8.35375 286.122L-2.2036 275.47Z" stroke="#5D5FEF" stroke-width="0.503643"/>
<path d="M40.353 8.79088L52.6533 8.79088L58.8035 19.4433L52.6533 30.0956H40.353L34.2029 19.4433L40.353 8.79088Z" stroke="#5D5FEF" stroke-width="0.503643"/>
<path d="M40.353 57.1405L52.6533 57.1405L58.8035 67.7929L52.6533 78.4453H40.353L34.2029 67.7929L40.353 57.1405Z" stroke="#5D5FEF" stroke-width="0.503643"/>
<path d="M40.353 105.491L52.6533 105.491L58.8035 116.143L52.6533 126.795H40.353L34.2029 116.143L40.353 105.491Z" stroke="#5D5FEF" stroke-width="0.503643"/>
<path d="M40.353 153.84L52.6533 153.84L58.8035 164.493L52.6533 175.145H40.353L34.2029 164.493L40.353 153.84Z" stroke="#5D5FEF" stroke-width="0.503643"/>
<path d="M40.353 202.19L52.6533 202.19L58.8035 212.843L52.6533 223.495H40.353L34.2029 212.843L40.353 202.19Z" stroke="#5D5FEF" stroke-width="0.503643"/>
<path d="M40.353 226.617L52.6533 226.617L58.8035 237.269L52.6533 247.921H40.353L34.2029 237.269L40.353 226.617Z" stroke="#5D5FEF" stroke-width="0.503643"/>
<path d="M40.353 251.043L52.6533 251.043L58.8035 261.696L52.6533 272.348H40.353L34.2029 261.696L40.353 251.043Z" stroke="#5D5FEF" stroke-width="0.503643"/>
<path d="M40.353 275.47L52.6533 275.47L58.8035 286.122L52.6533 296.775H40.353L34.2029 286.122L40.353 275.47Z" stroke="#5D5FEF" stroke-width="0.503643"/>
<path d="M82.9116 8.79088L95.2119 8.79088L101.362 19.4433L95.2119 30.0956H82.9116L76.7615 19.4433L82.9116 8.79088Z" stroke="#5D5FEF" stroke-width="0.503643"/>
<path d="M82.9116 57.1405L95.2119 57.1405L101.362 67.7929L95.2119 78.4453H82.9116L76.7615 67.7929L82.9116 57.1405Z" stroke="#5D5FEF" stroke-width="0.503643"/>
<path d="M82.9116 105.491L95.2119 105.491L101.362 116.143L95.2119 126.795H82.9116L76.7615 116.143L82.9116 105.491Z" stroke="#5D5FEF" stroke-width="0.503643"/>
<path d="M82.9116 153.84L95.2119 153.84L101.362 164.493L95.2119 175.145H82.9116L76.7615 164.493L82.9116 153.84Z" stroke="#5D5FEF" stroke-width="0.503643"/>
<path d="M82.9116 202.19L95.2119 202.19L101.362 212.843L95.2119 223.495H82.9116L76.7615 212.843L82.9116 202.19Z" stroke="#5D5FEF" stroke-width="0.503643"/>
<path d="M82.9116 226.617L95.2119 226.617L101.362 237.269L95.2119 247.921H82.9116L76.7615 237.269L82.9116 226.617Z" stroke="#5D5FEF" stroke-width="0.503643"/>
<path d="M82.9116 251.043L95.2119 251.043L101.362 261.696L95.2119 272.348H82.9116L76.7615 261.696L82.9116 251.043Z" stroke="#5D5FEF" stroke-width="0.503643"/>
<path d="M82.9116 275.47L95.2119 275.47L101.362 286.122L95.2119 296.775H82.9116L76.7615 286.122L82.9116 275.47Z" stroke="#5D5FEF" stroke-width="0.503643"/>
<path d="M125.469 8.79088L137.77 8.79088L143.92 19.4433L137.77 30.0956H125.469L119.319 19.4433L125.469 8.79088Z" stroke="#5D5FEF" stroke-width="0.503643"/>
<path d="M125.469 57.1405L137.77 57.1405L143.92 67.7929L137.77 78.4453H125.469L119.319 67.7929L125.469 57.1405Z" stroke="#5D5FEF" stroke-width="0.503643"/>
<path d="M125.469 105.491L137.77 105.491L143.92 116.143L137.77 126.795H125.469L119.319 116.143L125.469 105.491Z" stroke="#5D5FEF" stroke-width="0.503643"/>
<path d="M125.469 153.84L137.77 153.84L143.92 164.493L137.77 175.145H125.469L119.319 164.493L125.469 153.84Z" stroke="#5D5FEF" stroke-width="0.503643"/>
<path d="M125.469 202.19L137.77 202.19L143.92 212.843L137.77 223.495H125.469L119.319 212.843L125.469 202.19Z" stroke="#5D5FEF" stroke-width="0.503643"/>
<path d="M125.469 226.617L137.77 226.617L143.92 237.269L137.77 247.921H125.469L119.319 237.269L125.469 226.617Z" stroke="#5D5FEF" stroke-width="0.503643"/>
<path d="M125.469 251.043L137.77 251.043L143.92 261.696L137.77 272.348H125.469L119.319 261.696L125.469 251.043Z" stroke="#5D5FEF" stroke-width="0.503643"/>
<path d="M125.469 275.47L137.77 275.47L143.92 286.122L137.77 296.775H125.469L119.319 286.122L125.469 275.47Z" stroke="#5D5FEF" stroke-width="0.503643"/>
<path d="M168.027 8.79088L180.327 8.79088L186.477 19.4433L180.327 30.0956H168.027L161.877 19.4433L168.027 8.79088Z" stroke="#5D5FEF" stroke-width="0.503643"/>
<path d="M168.027 57.1405L180.327 57.1405L186.477 67.7929L180.327 78.4453H168.027L161.877 67.7929L168.027 57.1405Z" stroke="#5D5FEF" stroke-width="0.503643"/>
<path d="M168.027 105.491L180.327 105.491L186.477 116.143L180.327 126.795H168.027L161.877 116.143L168.027 105.491Z" stroke="#5D5FEF" stroke-width="0.503643"/>
<path d="M168.027 153.84L180.327 153.84L186.477 164.493L180.327 175.145H168.027L161.877 164.493L168.027 153.84Z" stroke="#5D5FEF" stroke-width="0.503643"/>
<path d="M168.027 202.19L180.327 202.19L186.477 212.843L180.327 223.495H168.027L161.877 212.843L168.027 202.19Z" stroke="#5D5FEF" stroke-width="0.503643"/>
<path d="M168.027 226.617L180.327 226.617L186.477 237.269L180.327 247.921H168.027L161.877 237.269L168.027 226.617Z" stroke="#5D5FEF" stroke-width="0.503643"/>
<path d="M168.027 251.043L180.327 251.043L186.477 261.696L180.327 272.348H168.027L161.877 261.696L168.027 251.043Z" stroke="#5D5FEF" stroke-width="0.503643"/>
<path d="M168.027 275.47L180.327 275.47L186.477 286.122L180.327 296.775H168.027L161.877 286.122L168.027 275.47Z" stroke="#5D5FEF" stroke-width="0.503643"/>
<path d="M210.585 8.79088L222.886 8.79088L229.036 19.4433L222.886 30.0956H210.585L204.435 19.4433L210.585 8.79088Z" stroke="#5D5FEF" stroke-width="0.503643"/>
<path d="M253.142 8.79088L265.442 8.79088L271.593 19.4433L265.442 30.0956H253.142L246.992 19.4433L253.142 8.79088Z" stroke="#5D5FEF" stroke-width="0.503643"/>
<path d="M295.701 8.79088L308.001 8.79088L314.151 19.4433L308.001 30.0956H295.701L289.551 19.4433L295.701 8.79088Z" stroke="#5D5FEF" stroke-width="0.503643"/>
<path d="M338.259 8.79088L350.56 8.79088L356.71 19.4433L350.56 30.0956H338.259L332.109 19.4433L338.259 8.79088Z" stroke="#5D5FEF" stroke-width="0.503643"/>
<path d="M380.817 8.79088L393.117 8.79088L399.267 19.4433L393.117 30.0956H380.817L374.667 19.4433L380.817 8.79088Z" stroke="#5D5FEF" stroke-width="0.503643"/>
<path d="M210.585 57.1405L222.886 57.1405L229.036 67.7929L222.886 78.4453H210.585L204.435 67.7929L210.585 57.1405Z" stroke="#5D5FEF" stroke-width="0.503643"/>
<path d="M253.142 57.1405L265.442 57.1405L271.593 67.7929L265.442 78.4453H253.142L246.992 67.7929L253.142 57.1405Z" stroke="#5D5FEF" stroke-width="0.503643"/>
<path d="M295.701 57.1405L308.001 57.1405L314.151 67.7929L308.001 78.4453H295.701L289.551 67.7929L295.701 57.1405Z" stroke="#5D5FEF" stroke-width="0.503643"/>
<path d="M338.259 57.1405L350.56 57.1405L356.71 67.7929L350.56 78.4453H338.259L332.109 67.7929L338.259 57.1405Z" stroke="#5D5FEF" stroke-width="0.503643"/>
<path d="M380.817 57.1405L393.117 57.1405L399.267 67.7929L393.117 78.4453H380.817L374.667 67.7929L380.817 57.1405Z" stroke="#5D5FEF" stroke-width="0.503643"/>
<path d="M210.585 105.491L222.886 105.491L229.036 116.143L222.886 126.795H210.585L204.435 116.143L210.585 105.491Z" stroke="#5D5FEF" stroke-width="0.503643"/>
<path d="M253.142 105.491L265.442 105.491L271.593 116.143L265.442 126.795H253.142L246.992 116.143L253.142 105.491Z" stroke="#5D5FEF" stroke-width="0.503643"/>
<path d="M295.701 105.491L308.001 105.491L314.151 116.143L308.001 126.795H295.701L289.551 116.143L295.701 105.491Z" stroke="#5D5FEF" stroke-width="0.503643"/>
<path d="M338.259 105.491L350.56 105.491L356.71 116.143L350.56 126.795H338.259L332.109 116.143L338.259 105.491Z" stroke="#5D5FEF" stroke-width="0.503643"/>
<path d="M380.817 105.491L393.117 105.491L399.267 116.143L393.117 126.795H380.817L374.667 116.143L380.817 105.491Z" stroke="#5D5FEF" stroke-width="0.503643"/>
<path d="M210.585 153.84L222.886 153.84L229.036 164.493L222.886 175.145H210.585L204.435 164.493L210.585 153.84Z" stroke="#5D5FEF" stroke-width="0.503643"/>
<path d="M253.142 153.84L265.442 153.84L271.593 164.493L265.442 175.145H253.142L246.992 164.493L253.142 153.84Z" stroke="#5D5FEF" stroke-width="0.503643"/>
<path d="M295.701 153.84L308.001 153.84L314.151 164.493L308.001 175.145H295.701L289.551 164.493L295.701 153.84Z" stroke="#5D5FEF" stroke-width="0.503643"/>
<path d="M338.259 153.84L350.56 153.84L356.71 164.493L350.56 175.145H338.259L332.109 164.493L338.259 153.84Z" stroke="#5D5FEF" stroke-width="0.503643"/>
<path d="M380.817 153.84L393.117 153.84L399.267 164.493L393.117 175.145H380.817L374.667 164.493L380.817 153.84Z" stroke="#5D5FEF" stroke-width="0.503643"/>
<path d="M210.585 202.19L222.886 202.19L229.036 212.843L222.886 223.495H210.585L204.435 212.843L210.585 202.19Z" stroke="#5D5FEF" stroke-width="0.503643"/>
<path d="M210.585 226.617L222.886 226.617L229.036 237.269L222.886 247.921H210.585L204.435 237.269L210.585 226.617Z" stroke="#5D5FEF" stroke-width="0.503643"/>
<path d="M210.585 251.043L222.886 251.043L229.036 261.696L222.886 272.348H210.585L204.435 261.696L210.585 251.043Z" stroke="#5D5FEF" stroke-width="0.503643"/>
<path d="M210.585 275.47L222.886 275.47L229.036 286.122L222.886 296.775H210.585L204.435 286.122L210.585 275.47Z" stroke="#5D5FEF" stroke-width="0.503643"/>
<path d="M253.142 202.19L265.442 202.19L271.593 212.843L265.442 223.495H253.142L246.992 212.843L253.142 202.19Z" stroke="#5D5FEF" stroke-width="0.503643"/>
<path d="M253.142 226.617L265.442 226.617L271.593 237.269L265.442 247.921H253.142L246.992 237.269L253.142 226.617Z" stroke="#5D5FEF" stroke-width="0.503643"/>
<path d="M253.142 251.043L265.442 251.043L271.593 261.696L265.442 272.348H253.142L246.992 261.696L253.142 251.043Z" stroke="#5D5FEF" stroke-width="0.503643"/>
<path d="M253.142 275.47L265.442 275.47L271.593 286.122L265.442 296.775H253.142L246.992 286.122L253.142 275.47Z" stroke="#5D5FEF" stroke-width="0.503643"/>
<path d="M295.701 202.19L308.001 202.19L314.151 212.843L308.001 223.495H295.701L289.551 212.843L295.701 202.19Z" stroke="#5D5FEF" stroke-width="0.503643"/>
<path d="M295.701 226.617L308.001 226.617L314.151 237.269L308.001 247.921H295.701L289.551 237.269L295.701 226.617Z" stroke="#5D5FEF" stroke-width="0.503643"/>
<path d="M295.701 251.043L308.001 251.043L314.151 261.696L308.001 272.348H295.701L289.551 261.696L295.701 251.043Z" stroke="#5D5FEF" stroke-width="0.503643"/>
<path d="M295.701 275.47L308.001 275.47L314.151 286.122L308.001 296.775H295.701L289.551 286.122L295.701 275.47Z" stroke="#5D5FEF" stroke-width="0.503643"/>
<path d="M338.259 202.19L350.56 202.19L356.71 212.843L350.56 223.495H338.259L332.109 212.843L338.259 202.19Z" stroke="#5D5FEF" stroke-width="0.503643"/>
<path d="M338.259 226.617L350.56 226.617L356.71 237.269L350.56 247.921H338.259L332.109 237.269L338.259 226.617Z" stroke="#5D5FEF" stroke-width="0.503643"/>
<path d="M338.259 251.043L350.56 251.043L356.71 261.696L350.56 272.348H338.259L332.109 261.696L338.259 251.043Z" stroke="#5D5FEF" stroke-width="0.503643"/>
<path d="M338.259 275.47L350.56 275.47L356.71 286.122L350.56 296.775H338.259L332.109 286.122L338.259 275.47Z" stroke="#5D5FEF" stroke-width="0.503643"/>
<path d="M380.817 202.19L393.117 202.19L399.267 212.843L393.117 223.495H380.817L374.667 212.843L380.817 202.19Z" stroke="#5D5FEF" stroke-width="0.503643"/>
<path d="M380.817 226.617L393.117 226.617L399.267 237.269L393.117 247.921H380.817L374.667 237.269L380.817 226.617Z" stroke="#5D5FEF" stroke-width="0.503643"/>
<path d="M380.817 251.043L393.117 251.043L399.267 261.696L393.117 272.348H380.817L374.667 261.696L380.817 251.043Z" stroke="#5D5FEF" stroke-width="0.503643"/>
<path d="M380.817 275.47L393.117 275.47L399.267 286.122L393.117 296.775H380.817L374.667 286.122L380.817 275.47Z" stroke="#5D5FEF" stroke-width="0.503643"/>
</g>
</svg>
