<svg width="24" height="24" viewBox="0 0 24 24" fill="none" xmlns="http://www.w3.org/2000/svg">
<path d="M9.9802 10.6792C9.4658 10.6792 9.06055 11.13 9.06055 11.6805C9.06055 12.229 9.47529 12.6817 9.9802 12.6817C10.4936 12.6817 10.8989 12.229 10.8989 11.6805C10.9093 11.1291 10.4936 10.6792 9.9802 10.6792ZM13.2716 10.6792C12.7572 10.6792 12.3519 11.13 12.3519 11.6805C12.3519 12.229 12.7667 12.6817 13.2716 12.6817C13.785 12.6817 14.1903 12.229 14.1903 11.6805C14.1893 11.1291 13.785 10.6792 13.2716 10.6792Z" fill="url(#paint0_linear_710_321)"/>
<path d="M17.6532 3.11426H5.57051C5.32722 3.11488 5.08644 3.16342 4.86191 3.25709C4.63738 3.35077 4.43351 3.48775 4.26192 3.66022C4.09033 3.83269 3.95439 4.03727 3.86186 4.26228C3.76934 4.48728 3.72204 4.72831 3.72266 4.9716V17.1615C3.72266 18.1894 4.55215 19.0188 5.57051 19.0188H15.7949L15.3156 17.3494L16.4706 18.4228L17.5611 19.4326L19.501 21.1467V4.9716C19.5016 4.72831 19.4543 4.48728 19.3618 4.26228C19.2693 4.03727 19.1334 3.83269 18.9618 3.66022C18.7902 3.48775 18.5863 3.35077 18.3618 3.25709C18.1372 3.16342 17.8965 3.11488 17.6532 3.11426ZM14.172 14.8894C14.172 14.8894 13.8474 14.5022 13.5778 14.1577C14.7585 13.8236 15.2093 13.0852 15.2093 13.0852C14.8392 13.3282 14.488 13.5009 14.172 13.6186C13.0214 14.1001 11.7543 14.2315 10.5294 13.9963C10.0768 13.9074 9.63332 13.7772 9.20451 13.6072C8.97836 13.5213 8.75858 13.4195 8.54681 13.3026C8.51928 13.2826 8.49271 13.275 8.46613 13.257C8.45192 13.2503 8.4393 13.2405 8.42912 13.2285C8.26683 13.1393 8.17667 13.0767 8.17667 13.0767C8.17667 13.0767 8.60944 13.798 9.75498 14.1406C9.48449 14.4823 9.15042 14.8894 9.15042 14.8894C7.15831 14.8258 6.4019 13.519 6.4019 13.519C6.4019 10.6157 7.70023 8.26298 7.70023 8.26298C8.99856 7.28829 10.2333 7.31581 10.2333 7.31581L10.3235 7.424C8.70056 7.8938 7.95174 8.6056 7.95174 8.6056C7.95174 8.6056 8.15104 8.49741 8.48417 8.3446C9.44843 7.92132 10.2143 7.80363 10.5304 7.77611C10.5845 7.76757 10.63 7.75808 10.6841 7.75808C12.2474 7.5474 13.8371 7.8445 15.2188 8.6056C15.2188 8.6056 14.506 7.92986 12.9733 7.46102L13.0995 7.31676C13.0995 7.31676 14.3352 7.28923 15.6326 8.26393C15.6326 8.26393 16.9309 10.6167 16.9309 13.5199C16.9309 13.519 16.165 14.8258 14.172 14.8894Z" fill="url(#paint1_linear_710_321)"/>
<defs>
<linearGradient id="paint0_linear_710_321" x1="11.6254" y1="10.6792" x2="11.6254" y2="12.6817" gradientUnits="userSpaceOnUse">
<stop stop-color="#8B008C"/>
<stop offset="1" stop-color="#F83A67"/>
</linearGradient>
<linearGradient id="paint1_linear_710_321" x1="11.6118" y1="3.11426" x2="11.6118" y2="21.1467" gradientUnits="userSpaceOnUse">
<stop stop-color="#8B008C"/>
<stop offset="1" stop-color="#F83A67"/>
</linearGradient>
</defs>
</svg>
