<svg width="24" height="24" viewBox="0 0 24 24" fill="none" xmlns="http://www.w3.org/2000/svg">
<g clip-path="url(#clip0_710_316)">
<path fill-rule="evenodd" clip-rule="evenodd" d="M12.1389 0.26709C5.84653 0.26709 0.75 5.36362 0.75 11.656C0.75 16.6956 4.01007 20.9522 8.53715 22.4612C9.1066 22.5608 9.32014 22.2192 9.32014 21.9202C9.32014 21.6497 9.3059 20.7529 9.3059 19.799C6.44444 20.3258 5.70417 19.1015 5.47639 18.4608C5.34826 18.1334 4.79306 17.1226 4.30903 16.8522C3.91042 16.6386 3.34097 16.1119 4.29479 16.0976C5.19167 16.0834 5.83229 16.9233 6.04583 17.265C7.07083 18.9876 8.70799 18.5035 9.36285 18.2046C9.4625 17.4643 9.76146 16.966 10.0889 16.6813C7.55486 16.3966 4.90694 15.4143 4.90694 11.0581C4.90694 9.81952 5.34826 8.79452 6.07431 7.9973C5.96042 7.71258 5.56181 6.54522 6.18819 4.97924C6.18819 4.97924 7.14201 4.68028 9.32014 6.1466C10.2312 5.89035 11.1993 5.76223 12.1674 5.76223C13.1354 5.76223 14.1035 5.89035 15.0146 6.1466C17.1927 4.66605 18.1465 4.97924 18.1465 4.97924C18.7729 6.54522 18.3743 7.71258 18.2604 7.9973C18.9865 8.79452 19.4278 9.80528 19.4278 11.0581C19.4278 15.4285 16.7656 16.3966 14.2316 16.6813C14.6444 17.0372 15.0003 17.7206 15.0003 18.7883C15.0003 20.3115 14.9861 21.5358 14.9861 21.9202C14.9861 22.2192 15.1997 22.5751 15.7691 22.4612C18.03 21.6979 19.9945 20.2448 21.3863 18.3065C22.7782 16.3682 23.5271 14.0422 23.5278 11.656C23.5278 5.36362 18.4312 0.26709 12.1389 0.26709Z" fill="url(#paint0_linear_710_316)"/>
</g>
<defs>
<linearGradient id="paint0_linear_710_316" x1="12.1389" y1="0.26709" x2="12.1389" y2="22.4829" gradientUnits="userSpaceOnUse">
<stop stop-color="#8B008C"/>
<stop offset="1" stop-color="#F83A67"/>
</linearGradient>
<clipPath id="clip0_710_316">
<rect width="22.7778" height="22.7778" fill="white" transform="translate(0.75 0.26709)"/>
</clipPath>
</defs>
</svg>
