<svg width="24" height="24" viewBox="0 0 24 24" fill="none" xmlns="http://www.w3.org/2000/svg">
<path d="M4.58616 7.16125C4.59779 7.04572 4.58222 6.92907 4.54069 6.82063C4.49916 6.71219 4.43283 6.61497 4.347 6.53676L2.57413 4.38521V4.06348H8.07686L12.3306 13.4641L16.07 4.06348H21.3164V4.38521L19.8008 5.84774C19.7365 5.89732 19.687 5.96342 19.6574 6.03898C19.6278 6.11453 19.6193 6.1967 19.6328 6.27672V17.0335C19.6193 17.1135 19.6278 17.1957 19.6574 17.2713C19.687 17.3468 19.7365 17.4129 19.8008 17.4625L21.2813 18.926V19.2487H13.8368V18.9269L15.3705 17.4274C15.5214 17.2755 15.5214 17.2309 15.5214 16.9994V8.30394L11.2582 19.2126H10.683L5.71936 8.30394V15.6156C5.67855 15.9222 5.7801 16.2325 5.99459 16.4546L7.9886 18.8918V19.2126H2.33496V18.8918L4.32802 16.4546C4.43347 16.3445 4.51173 16.2114 4.55656 16.0657C4.60138 15.92 4.61152 15.7659 4.58616 15.6156V7.16125Z" fill="url(#paint0_linear_710_324)"/>
<defs>
<linearGradient id="paint0_linear_710_324" x1="11.8257" y1="4.06348" x2="11.8257" y2="19.2487" gradientUnits="userSpaceOnUse">
<stop stop-color="#8B008C"/>
<stop offset="1" stop-color="#F83A67"/>
</linearGradient>
</defs>
</svg>
