<svg width="23" height="24" viewBox="0 0 23 24" fill="none" xmlns="http://www.w3.org/2000/svg">
<g clip-path="url(#clip0_710_327)">
<path d="M22.4393 4.95253C21.6468 5.30368 20.7955 5.54095 19.9006 5.6482C20.824 5.09564 21.5149 4.22598 21.8443 3.20149C20.9767 3.71682 20.0271 4.07956 19.0369 4.27394C18.371 3.56295 17.489 3.0917 16.5279 2.93335C15.5667 2.77499 14.5801 2.93839 13.7214 3.39818C12.8626 3.85797 12.1796 4.58843 11.7785 5.47613C11.3774 6.36384 11.2806 7.35914 11.5031 8.3075C9.74516 8.21924 8.02538 7.76231 6.45542 6.96637C4.88546 6.17044 3.5004 5.05328 2.39013 3.68741C2.0105 4.34227 1.79222 5.10153 1.79222 5.91014C1.79179 6.63808 1.97105 7.35486 2.31409 7.9969C2.65713 8.63894 3.15334 9.18638 3.7587 9.59065C3.05665 9.56831 2.37008 9.37861 1.75615 9.03734V9.09429C1.75608 10.1152 2.10924 11.1048 2.7557 11.895C3.40216 12.6852 4.30211 13.2274 5.30284 13.4297C4.65157 13.6059 3.96877 13.6319 3.30599 13.5056C3.58834 14.3841 4.13832 15.1523 4.87896 15.7026C5.61959 16.253 6.51378 16.558 7.43636 16.5749C5.87023 17.8043 3.93607 18.4712 1.94502 18.4683C1.59232 18.4684 1.23993 18.4478 0.889648 18.4066C2.91068 19.706 5.2633 20.3957 7.66604 20.393C15.7996 20.393 20.246 13.6565 20.246 7.81399C20.246 7.62417 20.2413 7.43246 20.2327 7.24264C21.0976 6.61718 21.8442 5.84266 22.4374 4.95537L22.4393 4.95253Z" fill="url(#paint0_linear_710_327)"/>
</g>
<defs>
<linearGradient id="paint0_linear_710_327" x1="11.6645" y1="2.87451" x2="11.6645" y2="20.393" gradientUnits="userSpaceOnUse">
<stop stop-color="#8B008C"/>
<stop offset="1" stop-color="#F83A67"/>
</linearGradient>
<clipPath id="clip0_710_327">
<rect width="22.7778" height="22.7778" fill="white" transform="translate(0 0.26709)"/>
</clipPath>
</defs>
</svg>
