<svg width="129" height="35" viewBox="0 0 129 35" fill="none" xmlns="http://www.w3.org/2000/svg">
<path d="M10.8235 11.5924C10.9477 11.7782 11.014 11.9968 11.0141 12.2203L10.8235 11.5924ZM10.8235 11.5924C10.6993 11.4065 10.5227 11.2617 10.3162 11.1762M10.8235 11.5924L10.3162 11.1762M10.3162 11.1762C10.1096 11.0907 9.88231 11.0684 9.66307 11.1121M10.3162 11.1762L9.66307 11.1121M9.66307 11.1121C9.44383 11.1559 9.24248 11.2636 9.0845 11.4218M9.66307 11.1121L9.0845 11.4218M9.0845 11.4218C8.92653 11.58 8.81901 11.7815 8.77557 12.0007M9.0845 11.4218L8.77557 12.0007M8.77557 12.0007C8.73212 12.22 8.7547 12.4473 8.84044 12.6537M8.77557 12.0007L8.84044 12.6537M8.84044 12.6537C8.92619 12.8602 9.07124 13.0366 9.25725 13.1606M8.84044 12.6537L9.25725 13.1606M9.25725 13.1606C9.44327 13.2846 9.66188 13.3506 9.88543 13.3504M9.25725 13.1606L9.88543 13.3504M9.88543 13.3504C10.0337 13.3503 10.1805 13.3211 10.3175 13.2643M9.88543 13.3504L10.3175 13.2643M10.3175 13.2643C10.4546 13.2075 10.5791 13.1242 10.6839 13.0192M10.3175 13.2643L10.6839 13.0192M10.6839 13.0192C10.7888 12.9143 10.8719 12.7897 10.9285 12.6525M10.6839 13.0192L10.9285 12.6525M10.9285 12.6525C10.9851 12.5155 11.0142 12.3686 11.0141 12.2203L10.9285 12.6525Z" fill="url(#paint0_linear_719_1242)" stroke="white" stroke-width="0.366949"/>
<path d="M14.3163 9.32352V9.32338C14.3165 8.97163 14.2125 8.62771 14.0172 8.33512C13.822 8.04252 13.5444 7.8144 13.2195 7.67961C12.8946 7.54483 12.537 7.50943 12.192 7.57789C11.847 7.64636 11.53 7.81561 11.2812 8.06424C11.0324 8.31288 10.8629 8.62972 10.7941 8.97469C10.7254 9.31966 10.7606 9.67727 10.8951 10.0023C11.0297 10.3273 11.2576 10.6051 11.55 10.8005C11.8425 10.996 12.1863 11.1003 12.5381 11.1003H12.5382C13.0095 11.0999 13.4613 10.9127 13.7947 10.5796C14.128 10.2465 14.3156 9.79476 14.3163 9.32352Z" fill="url(#paint1_linear_719_1242)" stroke="white" stroke-width="0.366949"/>
<path d="M11.078 6.08477C11.078 5.73308 10.9737 5.38928 10.7783 5.09686C10.5829 4.80444 10.3052 4.57652 9.98029 4.44193C9.65537 4.30735 9.29783 4.27213 8.95289 4.34074C8.60796 4.40936 8.29111 4.57871 8.04243 4.8274C7.79374 5.07608 7.62438 5.39293 7.55577 5.73787C7.48716 6.0828 7.52237 6.44034 7.65696 6.76526C7.79155 7.09018 8.01947 7.3679 8.31189 7.56329C8.60431 7.75868 8.94811 7.86297 9.2998 7.86297C9.53332 7.86297 9.76455 7.81698 9.98029 7.72762C10.196 7.63825 10.3921 7.50727 10.5572 7.34215C10.7223 7.17703 10.8533 6.981 10.9426 6.76526C11.032 6.54952 11.078 6.31829 11.078 6.08477Z" fill="url(#paint2_linear_719_1242)" stroke="white" stroke-width="0.366949"/>
<path d="M17.9393 4.70542C17.9395 4.19191 17.7875 3.68987 17.5024 3.26279C17.2173 2.83571 16.8119 2.50278 16.3376 2.30609C15.8632 2.10941 15.3412 2.05782 14.8375 2.15785C14.3339 2.25788 13.8712 2.50503 13.508 2.86804C13.1448 3.23105 12.8974 3.69362 12.7972 4.19723C12.6969 4.70085 12.7482 5.22289 12.9447 5.69732C13.1411 6.17176 13.4739 6.57728 13.9008 6.86259C14.3278 7.1479 14.8297 7.30019 15.3432 7.30019C16.0315 7.30019 16.6916 7.02685 17.1785 6.54027C17.6653 6.0537 17.9389 5.39371 17.9393 4.70542Z" fill="url(#paint3_linear_719_1242)" stroke="white" stroke-width="0.366949"/>
<path d="M6.19044 16.5377C6.1907 16.2063 6.09267 15.8823 5.90875 15.6066C5.72483 15.331 5.46328 15.116 5.1572 14.989C4.85111 14.862 4.51423 14.8287 4.18918 14.8932C3.86413 14.9577 3.56551 15.1171 3.33109 15.3513C3.09668 15.5856 2.93699 15.8841 2.87225 16.2091C2.8075 16.5341 2.8406 16.871 2.96736 17.1772C3.09411 17.4833 3.30883 17.7451 3.58435 17.9292C3.85987 18.1133 4.18381 18.2116 4.5152 18.2116C4.95927 18.2116 5.38518 18.0353 5.69931 17.7214C6.01344 17.4075 6.19009 16.9818 6.19044 16.5377Z" fill="url(#paint4_linear_719_1242)" stroke="white" stroke-width="0.366949"/>
<path d="M5.58781 11.8412C5.72898 12.0524 5.80434 12.3007 5.80438 12.5548C5.80438 12.5548 5.80438 12.5549 5.80438 12.555L5.6209 12.555C5.62106 12.6995 5.59272 12.8426 5.53752 12.9762C5.48232 13.1098 5.40133 13.2311 5.29919 13.3334C5.19705 13.4356 5.07576 13.5168 4.94224 13.5721C4.80873 13.6275 4.66562 13.6559 4.52109 13.6559L5.58781 11.8412ZM5.58781 11.8412C5.44662 11.63 5.24593 11.4653 5.01115 11.3681C4.77637 11.271 4.51803 11.2456 4.26884 11.2953C4.01964 11.345 3.79078 11.4674 3.6112 11.6472C3.43162 11.827 3.30939 12.056 3.25999 12.3052C3.21058 12.5545 3.23621 12.8128 3.33364 13.0474C3.43106 13.2821 3.59591 13.4826 3.80731 13.6236C4.01872 13.7646 4.26719 13.8397 4.52129 13.8394L5.58781 11.8412Z" fill="url(#paint5_linear_719_1242)" stroke="white" stroke-width="0.366949"/>
<path d="M3.00857 10.4313C3.00857 10.2431 2.95275 10.0592 2.84819 9.90278C2.74363 9.74636 2.59502 9.62447 2.42116 9.55253C2.2473 9.4806 2.05602 9.46185 1.8715 9.49866C1.68699 9.53547 1.51754 9.62619 1.38459 9.75934C1.25165 9.89248 1.16119 10.0621 1.12466 10.2466C1.08813 10.4312 1.10717 10.6225 1.17937 10.7962C1.25157 10.97 1.37369 11.1184 1.53027 11.2227C1.68685 11.327 1.87086 11.3826 2.05902 11.3823C2.31099 11.3819 2.5525 11.2815 2.73054 11.1032C2.90857 10.9249 3.00857 10.6833 3.00857 10.4313Z" fill="url(#paint6_linear_719_1242)" stroke="white" stroke-width="0.366949"/>
<path d="M10.1616 25.5842C11.7445 25.168 12.6903 23.5475 12.2741 21.9646C11.858 20.3818 10.2375 19.436 8.65462 19.8521C7.07176 20.2682 6.12595 21.8888 6.54209 23.4716C6.95823 25.0545 8.57874 26.0003 10.1616 25.5842Z" fill="url(#paint7_linear_719_1242)" stroke="white" stroke-width="0.366949"/>
<path d="M13.4241 28.4364C14.3649 28.4364 15.1275 27.6738 15.1275 26.7331C15.1275 25.7924 14.3649 25.0298 13.4241 25.0298C12.4834 25.0298 11.7208 25.7924 11.7208 26.7331C11.7208 27.6738 12.4834 28.4364 13.4241 28.4364Z" fill="url(#paint8_linear_719_1242)" stroke="white" stroke-width="0.366949"/>
<path d="M11.6034 16.5378V16.5377C11.6037 16.1036 11.4752 15.6792 11.2343 15.3181C10.9933 14.9571 10.6507 14.6756 10.2498 14.5092C9.84883 14.3429 9.40758 14.2992 8.98179 14.3836C8.55601 14.468 8.16482 14.6768 7.85771 14.9836C7.55059 15.2903 7.34134 15.6813 7.25641 16.107C7.17148 16.5327 7.21468 16.974 7.38056 17.3751C7.54644 17.7762 7.82754 18.1192 8.18832 18.3605C8.5491 18.6019 8.97336 18.7309 9.40743 18.7311H9.40754C9.98948 18.7311 10.5476 18.5001 10.9594 18.0889C11.3711 17.6776 11.6028 17.1197 11.6034 16.5378Z" fill="url(#paint9_linear_719_1242)" stroke="white" stroke-width="0.366949"/>
<mask id="path-11-outside-1_719_1242" maskUnits="userSpaceOnUse" x="4.91895" y="-0.545715" width="51" height="36" fill="black">
<rect fill="white" x="4.91895" y="-0.545715" width="51" height="36"/>
<path d="M45.6224 3.17141C37.9296 -3.33385 36.8473 3.88511 30.4614 3.88511C24.7377 3.88511 23.274 -1.91346 17.4919 1.57083C18.1572 2.02626 18.6604 2.68156 18.9286 3.44191C19.1968 4.20226 19.2162 5.02824 18.9839 5.80033C18.7516 6.57241 18.2797 7.25057 17.6364 7.73668C16.9931 8.22278 16.2119 8.49163 15.4057 8.50431C15.534 8.94828 15.5571 9.41601 15.4732 9.87047C15.3894 10.3249 15.2009 10.7536 14.9226 11.1226C14.6443 11.4915 14.284 11.7906 13.8701 11.9962C13.4562 12.2017 13.0002 12.3081 12.538 12.3068C12.4309 12.3069 12.3239 12.3011 12.2175 12.2893C12.2009 12.8891 11.9532 13.4592 11.526 13.8805C11.922 14.195 12.2428 14.594 12.4647 15.0484C12.6867 15.5029 12.8043 16.0011 12.8089 16.5068C12.8135 17.0125 12.705 17.5129 12.4913 17.9713C12.2776 18.4296 11.9642 18.8344 11.5739 19.1561C12.3485 19.6265 12.9486 20.3367 13.283 21.179C13.6175 22.0212 13.6681 22.9496 13.4272 23.8232C14.0024 23.8239 14.5645 23.9951 15.0425 24.3151C15.5205 24.6351 15.8929 25.0896 16.1127 25.6211C16.3325 26.1527 16.3898 26.7375 16.2775 27.3016C16.1651 27.8657 15.888 28.3839 15.4813 28.7906C15.0745 29.1973 14.5564 29.4744 13.9923 29.5868C13.4281 29.6992 12.8434 29.6418 12.3118 29.422C11.7803 29.2022 11.3258 28.8298 11.0058 28.3519C10.6858 27.8739 10.5146 27.3118 10.5139 26.7366C9.66254 26.9713 8.75859 26.9292 7.93268 26.6165C7.10677 26.3037 6.40168 25.7365 5.91929 24.9968C5.90291 27.9908 6.46802 30.6971 7.73749 32.7106C12.2444 39.8571 19.5815 24.7195 30.4614 24.7195C41.3413 24.7195 48.6761 39.8571 53.1865 32.7106C57.6969 25.5642 53.3164 9.67783 45.6224 3.17141ZM26.1125 15.1968H23.8895V17.4198C23.8895 17.8565 23.716 18.2754 23.4071 18.5842C23.0983 18.8931 22.6794 19.0666 22.2427 19.0666C21.8059 19.0666 21.3871 18.8931 21.0782 18.5842C20.7694 18.2754 20.5959 17.8565 20.5959 17.4198V15.1968H18.3729C18.1532 15.2026 17.9346 15.1644 17.73 15.0844C17.5254 15.0044 17.3388 14.8842 17.1814 14.7309C17.024 14.5777 16.8989 14.3944 16.8134 14.192C16.728 13.9895 16.684 13.772 16.684 13.5523C16.684 13.3326 16.728 13.1151 16.8134 12.9127C16.8989 12.7102 17.024 12.527 17.1814 12.3737C17.3388 12.2204 17.5254 12.1002 17.73 12.0202C17.9346 11.9402 18.1532 11.902 18.3729 11.9079H20.5959V9.68485C20.6073 9.25631 20.7856 8.84916 21.0927 8.55009C21.3999 8.25103 21.8116 8.08368 22.2403 8.08368C22.669 8.08368 23.0808 8.25103 23.3879 8.55009C23.6951 8.84916 23.8734 9.25631 23.8848 9.68485V11.9079H26.1078C26.5363 11.9193 26.9435 12.0976 27.2426 12.4047C27.5416 12.7119 27.709 13.1236 27.709 13.5523C27.709 13.981 27.5416 14.3928 27.2426 14.6999C26.9435 15.0071 26.5363 15.1853 26.1078 15.1968H26.1125ZM34.8115 15.1968C34.4858 15.197 34.1674 15.1005 33.8965 14.9196C33.6257 14.7387 33.4147 14.4814 33.2902 14.1804C33.1657 13.8795 33.1334 13.5483 33.1973 13.2289C33.2612 12.9096 33.4185 12.6163 33.6492 12.3864C33.8799 12.1565 34.1737 12.0003 34.4933 11.9375C34.8129 11.8748 35.1439 11.9083 35.4445 12.0338C35.745 12.1594 36.0015 12.3713 36.1815 12.6428C36.3614 12.9143 36.4568 13.233 36.4554 13.5587C36.4538 13.9937 36.2799 14.4103 35.9718 14.7174C35.6637 15.0244 35.2465 15.1968 34.8115 15.1968ZM38.6807 19.0578C38.355 19.058 38.0366 18.9616 37.7657 18.7806C37.4949 18.5997 37.2839 18.3424 37.1594 18.0415C37.0349 17.7405 37.0026 17.4093 37.0665 17.09C37.1304 16.7706 37.2877 16.4774 37.5184 16.2475C37.7491 16.0176 38.0429 15.8613 38.3625 15.7986C38.6821 15.7358 39.0132 15.7693 39.3137 15.8949C39.6142 16.0204 39.8707 16.2324 40.0507 16.5038C40.2307 16.7753 40.326 17.0941 40.3246 17.4198C40.3227 17.8547 40.1488 18.2711 39.8407 18.578C39.5327 18.885 39.1156 19.0575 38.6807 19.0578ZM38.6807 11.3194C38.3553 11.3196 38.0372 11.2233 37.7665 11.0427C37.4958 10.8621 37.2848 10.6052 37.1601 10.3047C37.0354 10.0041 37.0026 9.67329 37.066 9.35411C37.1293 9.03492 37.2859 8.7417 37.5159 8.51152C37.7459 8.28134 38.0391 8.12455 38.3582 8.06098C38.6773 7.99741 39.0081 8.02992 39.3088 8.15439C39.6095 8.27887 39.8665 8.48971 40.0473 8.76026C40.2281 9.03081 40.3246 9.34891 40.3246 9.67432C40.3252 9.89064 40.2831 10.105 40.2008 10.305C40.1185 10.5051 39.9975 10.6869 39.8448 10.8401C39.6921 10.9934 39.5107 11.115 39.311 11.198C39.1112 11.2811 38.8971 11.3239 38.6807 11.324V11.3194ZM42.5499 15.1968C42.2243 15.1968 41.906 15.1001 41.6353 14.919C41.3646 14.738 41.1538 14.4806 41.0295 14.1796C40.9052 13.8786 40.873 13.5475 40.9371 13.2282C41.0011 12.9089 41.1585 12.6158 41.3892 12.386C41.62 12.1563 41.9138 12.0001 42.2333 11.9375C42.5529 11.8748 42.8839 11.9084 43.1843 12.0339C43.4848 12.1595 43.7412 12.3715 43.9212 12.6429C44.1011 12.9144 44.1964 13.2331 44.195 13.5587C44.1934 13.9939 44.0194 14.4107 43.711 14.7178C43.4027 15.0248 42.9851 15.1971 42.5499 15.1968Z"/>
</mask>
<path d="M45.6224 3.17141C37.9296 -3.33385 36.8473 3.88511 30.4614 3.88511C24.7377 3.88511 23.274 -1.91346 17.4919 1.57083C18.1572 2.02626 18.6604 2.68156 18.9286 3.44191C19.1968 4.20226 19.2162 5.02824 18.9839 5.80033C18.7516 6.57241 18.2797 7.25057 17.6364 7.73668C16.9931 8.22278 16.2119 8.49163 15.4057 8.50431C15.534 8.94828 15.5571 9.41601 15.4732 9.87047C15.3894 10.3249 15.2009 10.7536 14.9226 11.1226C14.6443 11.4915 14.284 11.7906 13.8701 11.9962C13.4562 12.2017 13.0002 12.3081 12.538 12.3068C12.4309 12.3069 12.3239 12.3011 12.2175 12.2893C12.2009 12.8891 11.9532 13.4592 11.526 13.8805C11.922 14.195 12.2428 14.594 12.4647 15.0484C12.6867 15.5029 12.8043 16.0011 12.8089 16.5068C12.8135 17.0125 12.705 17.5129 12.4913 17.9713C12.2776 18.4296 11.9642 18.8344 11.5739 19.1561C12.3485 19.6265 12.9486 20.3367 13.283 21.179C13.6175 22.0212 13.6681 22.9496 13.4272 23.8232C14.0024 23.8239 14.5645 23.9951 15.0425 24.3151C15.5205 24.6351 15.8929 25.0896 16.1127 25.6211C16.3325 26.1527 16.3898 26.7375 16.2775 27.3016C16.1651 27.8657 15.888 28.3839 15.4813 28.7906C15.0745 29.1973 14.5564 29.4744 13.9923 29.5868C13.4281 29.6992 12.8434 29.6418 12.3118 29.422C11.7803 29.2022 11.3258 28.8298 11.0058 28.3519C10.6858 27.8739 10.5146 27.3118 10.5139 26.7366C9.66254 26.9713 8.75859 26.9292 7.93268 26.6165C7.10677 26.3037 6.40168 25.7365 5.91929 24.9968C5.90291 27.9908 6.46802 30.6971 7.73749 32.7106C12.2444 39.8571 19.5815 24.7195 30.4614 24.7195C41.3413 24.7195 48.6761 39.8571 53.1865 32.7106C57.6969 25.5642 53.3164 9.67783 45.6224 3.17141ZM26.1125 15.1968H23.8895V17.4198C23.8895 17.8565 23.716 18.2754 23.4071 18.5842C23.0983 18.8931 22.6794 19.0666 22.2427 19.0666C21.8059 19.0666 21.3871 18.8931 21.0782 18.5842C20.7694 18.2754 20.5959 17.8565 20.5959 17.4198V15.1968H18.3729C18.1532 15.2026 17.9346 15.1644 17.73 15.0844C17.5254 15.0044 17.3388 14.8842 17.1814 14.7309C17.024 14.5777 16.8989 14.3944 16.8134 14.192C16.728 13.9895 16.684 13.772 16.684 13.5523C16.684 13.3326 16.728 13.1151 16.8134 12.9127C16.8989 12.7102 17.024 12.527 17.1814 12.3737C17.3388 12.2204 17.5254 12.1002 17.73 12.0202C17.9346 11.9402 18.1532 11.902 18.3729 11.9079H20.5959V9.68485C20.6073 9.25631 20.7856 8.84916 21.0927 8.55009C21.3999 8.25103 21.8116 8.08368 22.2403 8.08368C22.669 8.08368 23.0808 8.25103 23.3879 8.55009C23.6951 8.84916 23.8734 9.25631 23.8848 9.68485V11.9079H26.1078C26.5363 11.9193 26.9435 12.0976 27.2426 12.4047C27.5416 12.7119 27.709 13.1236 27.709 13.5523C27.709 13.981 27.5416 14.3928 27.2426 14.6999C26.9435 15.0071 26.5363 15.1853 26.1078 15.1968H26.1125ZM34.8115 15.1968C34.4858 15.197 34.1674 15.1005 33.8965 14.9196C33.6257 14.7387 33.4147 14.4814 33.2902 14.1804C33.1657 13.8795 33.1334 13.5483 33.1973 13.2289C33.2612 12.9096 33.4185 12.6163 33.6492 12.3864C33.8799 12.1565 34.1737 12.0003 34.4933 11.9375C34.8129 11.8748 35.1439 11.9083 35.4445 12.0338C35.745 12.1594 36.0015 12.3713 36.1815 12.6428C36.3614 12.9143 36.4568 13.233 36.4554 13.5587C36.4538 13.9937 36.2799 14.4103 35.9718 14.7174C35.6637 15.0244 35.2465 15.1968 34.8115 15.1968ZM38.6807 19.0578C38.355 19.058 38.0366 18.9616 37.7657 18.7806C37.4949 18.5997 37.2839 18.3424 37.1594 18.0415C37.0349 17.7405 37.0026 17.4093 37.0665 17.09C37.1304 16.7706 37.2877 16.4774 37.5184 16.2475C37.7491 16.0176 38.0429 15.8613 38.3625 15.7986C38.6821 15.7358 39.0132 15.7693 39.3137 15.8949C39.6142 16.0204 39.8707 16.2324 40.0507 16.5038C40.2307 16.7753 40.326 17.0941 40.3246 17.4198C40.3227 17.8547 40.1488 18.2711 39.8407 18.578C39.5327 18.885 39.1156 19.0575 38.6807 19.0578ZM38.6807 11.3194C38.3553 11.3196 38.0372 11.2233 37.7665 11.0427C37.4958 10.8621 37.2848 10.6052 37.1601 10.3047C37.0354 10.0041 37.0026 9.67329 37.066 9.35411C37.1293 9.03492 37.2859 8.7417 37.5159 8.51152C37.7459 8.28134 38.0391 8.12455 38.3582 8.06098C38.6773 7.99741 39.0081 8.02992 39.3088 8.15439C39.6095 8.27887 39.8665 8.48971 40.0473 8.76026C40.2281 9.03081 40.3246 9.34891 40.3246 9.67432C40.3252 9.89064 40.2831 10.105 40.2008 10.305C40.1185 10.5051 39.9975 10.6869 39.8448 10.8401C39.6921 10.9934 39.5107 11.115 39.311 11.198C39.1112 11.2811 38.8971 11.3239 38.6807 11.324V11.3194ZM42.5499 15.1968C42.2243 15.1968 41.906 15.1001 41.6353 14.919C41.3646 14.738 41.1538 14.4806 41.0295 14.1796C40.9052 13.8786 40.873 13.5475 40.9371 13.2282C41.0011 12.9089 41.1585 12.6158 41.3892 12.386C41.62 12.1563 41.9138 12.0001 42.2333 11.9375C42.5529 11.8748 42.8839 11.9084 43.1843 12.0339C43.4848 12.1595 43.7412 12.3715 43.9212 12.6429C44.1011 12.9144 44.1964 13.2331 44.195 13.5587C44.1934 13.9939 44.0194 14.4107 43.711 14.7178C43.4027 15.0248 42.9851 15.1971 42.5499 15.1968Z" fill="url(#paint10_linear_719_1242)"/>
<path d="M45.6224 3.17141C37.9296 -3.33385 36.8473 3.88511 30.4614 3.88511C24.7377 3.88511 23.274 -1.91346 17.4919 1.57083C18.1572 2.02626 18.6604 2.68156 18.9286 3.44191C19.1968 4.20226 19.2162 5.02824 18.9839 5.80033C18.7516 6.57241 18.2797 7.25057 17.6364 7.73668C16.9931 8.22278 16.2119 8.49163 15.4057 8.50431C15.534 8.94828 15.5571 9.41601 15.4732 9.87047C15.3894 10.3249 15.2009 10.7536 14.9226 11.1226C14.6443 11.4915 14.284 11.7906 13.8701 11.9962C13.4562 12.2017 13.0002 12.3081 12.538 12.3068C12.4309 12.3069 12.3239 12.3011 12.2175 12.2893C12.2009 12.8891 11.9532 13.4592 11.526 13.8805C11.922 14.195 12.2428 14.594 12.4647 15.0484C12.6867 15.5029 12.8043 16.0011 12.8089 16.5068C12.8135 17.0125 12.705 17.5129 12.4913 17.9713C12.2776 18.4296 11.9642 18.8344 11.5739 19.1561C12.3485 19.6265 12.9486 20.3367 13.283 21.179C13.6175 22.0212 13.6681 22.9496 13.4272 23.8232C14.0024 23.8239 14.5645 23.9951 15.0425 24.3151C15.5205 24.6351 15.8929 25.0896 16.1127 25.6211C16.3325 26.1527 16.3898 26.7375 16.2775 27.3016C16.1651 27.8657 15.888 28.3839 15.4813 28.7906C15.0745 29.1973 14.5564 29.4744 13.9923 29.5868C13.4281 29.6992 12.8434 29.6418 12.3118 29.422C11.7803 29.2022 11.3258 28.8298 11.0058 28.3519C10.6858 27.8739 10.5146 27.3118 10.5139 26.7366C9.66254 26.9713 8.75859 26.9292 7.93268 26.6165C7.10677 26.3037 6.40168 25.7365 5.91929 24.9968C5.90291 27.9908 6.46802 30.6971 7.73749 32.7106C12.2444 39.8571 19.5815 24.7195 30.4614 24.7195C41.3413 24.7195 48.6761 39.8571 53.1865 32.7106C57.6969 25.5642 53.3164 9.67783 45.6224 3.17141ZM26.1125 15.1968H23.8895V17.4198C23.8895 17.8565 23.716 18.2754 23.4071 18.5842C23.0983 18.8931 22.6794 19.0666 22.2427 19.0666C21.8059 19.0666 21.3871 18.8931 21.0782 18.5842C20.7694 18.2754 20.5959 17.8565 20.5959 17.4198V15.1968H18.3729C18.1532 15.2026 17.9346 15.1644 17.73 15.0844C17.5254 15.0044 17.3388 14.8842 17.1814 14.7309C17.024 14.5777 16.8989 14.3944 16.8134 14.192C16.728 13.9895 16.684 13.772 16.684 13.5523C16.684 13.3326 16.728 13.1151 16.8134 12.9127C16.8989 12.7102 17.024 12.527 17.1814 12.3737C17.3388 12.2204 17.5254 12.1002 17.73 12.0202C17.9346 11.9402 18.1532 11.902 18.3729 11.9079H20.5959V9.68485C20.6073 9.25631 20.7856 8.84916 21.0927 8.55009C21.3999 8.25103 21.8116 8.08368 22.2403 8.08368C22.669 8.08368 23.0808 8.25103 23.3879 8.55009C23.6951 8.84916 23.8734 9.25631 23.8848 9.68485V11.9079H26.1078C26.5363 11.9193 26.9435 12.0976 27.2426 12.4047C27.5416 12.7119 27.709 13.1236 27.709 13.5523C27.709 13.981 27.5416 14.3928 27.2426 14.6999C26.9435 15.0071 26.5363 15.1853 26.1078 15.1968H26.1125ZM34.8115 15.1968C34.4858 15.197 34.1674 15.1005 33.8965 14.9196C33.6257 14.7387 33.4147 14.4814 33.2902 14.1804C33.1657 13.8795 33.1334 13.5483 33.1973 13.2289C33.2612 12.9096 33.4185 12.6163 33.6492 12.3864C33.8799 12.1565 34.1737 12.0003 34.4933 11.9375C34.8129 11.8748 35.1439 11.9083 35.4445 12.0338C35.745 12.1594 36.0015 12.3713 36.1815 12.6428C36.3614 12.9143 36.4568 13.233 36.4554 13.5587C36.4538 13.9937 36.2799 14.4103 35.9718 14.7174C35.6637 15.0244 35.2465 15.1968 34.8115 15.1968ZM38.6807 19.0578C38.355 19.058 38.0366 18.9616 37.7657 18.7806C37.4949 18.5997 37.2839 18.3424 37.1594 18.0415C37.0349 17.7405 37.0026 17.4093 37.0665 17.09C37.1304 16.7706 37.2877 16.4774 37.5184 16.2475C37.7491 16.0176 38.0429 15.8613 38.3625 15.7986C38.6821 15.7358 39.0132 15.7693 39.3137 15.8949C39.6142 16.0204 39.8707 16.2324 40.0507 16.5038C40.2307 16.7753 40.326 17.0941 40.3246 17.4198C40.3227 17.8547 40.1488 18.2711 39.8407 18.578C39.5327 18.885 39.1156 19.0575 38.6807 19.0578ZM38.6807 11.3194C38.3553 11.3196 38.0372 11.2233 37.7665 11.0427C37.4958 10.8621 37.2848 10.6052 37.1601 10.3047C37.0354 10.0041 37.0026 9.67329 37.066 9.35411C37.1293 9.03492 37.2859 8.7417 37.5159 8.51152C37.7459 8.28134 38.0391 8.12455 38.3582 8.06098C38.6773 7.99741 39.0081 8.02992 39.3088 8.15439C39.6095 8.27887 39.8665 8.48971 40.0473 8.76026C40.2281 9.03081 40.3246 9.34891 40.3246 9.67432C40.3252 9.89064 40.2831 10.105 40.2008 10.305C40.1185 10.5051 39.9975 10.6869 39.8448 10.8401C39.6921 10.9934 39.5107 11.115 39.311 11.198C39.1112 11.2811 38.8971 11.3239 38.6807 11.324V11.3194ZM42.5499 15.1968C42.2243 15.1968 41.906 15.1001 41.6353 14.919C41.3646 14.738 41.1538 14.4806 41.0295 14.1796C40.9052 13.8786 40.873 13.5475 40.9371 13.2282C41.0011 12.9089 41.1585 12.6158 41.3892 12.386C41.62 12.1563 41.9138 12.0001 42.2333 11.9375C42.5529 11.8748 42.8839 11.9084 43.1843 12.0339C43.4848 12.1595 43.7412 12.3715 43.9212 12.6429C44.1011 12.9144 44.1964 13.2331 44.195 13.5587C44.1934 13.9939 44.0194 14.4107 43.711 14.7178C43.4027 15.0248 42.9851 15.1971 42.5499 15.1968Z" stroke="white" stroke-width="0.733898" mask="url(#path-11-outside-1_719_1242)"/>
<path d="M84.1374 1.96289V10.5671C84.1374 11.742 83.812 12.6549 83.1612 13.3056C82.5104 13.9564 81.6091 14.2818 80.4572 14.2818C79.2133 14.2818 78.2284 13.9219 77.5028 13.202C76.7771 12.4821 76.4172 11.4627 76.4229 10.1438H78.8159C78.8159 10.7658 78.9455 11.2453 79.2046 11.5779C79.3421 11.7473 79.5181 11.8812 79.7181 11.9683C79.918 12.0555 80.1359 12.0935 80.3536 12.0789C80.5433 12.0947 80.7341 12.0662 80.911 11.9958C81.0879 11.9253 81.246 11.8148 81.373 11.6729C81.6077 11.3505 81.7237 10.9567 81.7012 10.5585V1.96289H84.1374Z" fill="#FDFDFD"/>
<path d="M93.1971 5.05573C93.9338 5.44168 94.543 6.03279 94.9508 6.75758C95.3708 7.56462 95.5901 8.46101 95.5901 9.37081C95.5901 10.2806 95.3708 11.177 94.9508 11.9841C94.5405 12.707 93.932 13.2975 93.1971 13.6859C92.4171 14.0778 91.5562 14.2819 90.6833 14.2819C89.8103 14.2819 88.9494 14.0778 88.1694 13.6859C87.435 13.2968 86.8267 12.7064 86.4157 11.9841C85.9957 11.177 85.7764 10.2806 85.7764 9.37081C85.7764 8.46101 85.9957 7.56462 86.4157 6.75758C86.8242 6.03332 87.4332 5.44238 88.1694 5.05573C88.9511 4.66937 89.8113 4.46838 90.6833 4.46838C91.5552 4.46838 92.4154 4.66937 93.1971 5.05573ZM88.9555 7.29318C88.4847 7.77263 88.2485 8.46662 88.2471 9.37514C88.2457 10.2837 88.4818 10.9776 88.9555 11.4571C89.1822 11.6843 89.4515 11.8646 89.748 11.9876C90.0444 12.1107 90.3623 12.174 90.6833 12.174C91.0042 12.174 91.3221 12.1107 91.6185 11.9876C91.915 11.8646 92.1843 11.6843 92.411 11.4571C92.8833 10.9805 93.1194 10.2865 93.1194 9.37514C93.1194 8.46374 92.8833 7.76975 92.411 7.29318C92.1843 7.06593 91.915 6.88564 91.6185 6.76263C91.3221 6.63961 91.0042 6.57629 90.6833 6.57629C90.3623 6.57629 90.0444 6.63961 89.748 6.76263C89.4515 6.88564 89.1822 7.06593 88.9555 7.29318Z" fill="#FDFDFD"/>
<path d="M98.9616 4.5957L101.568 11.0921L103.987 4.5957H106.665L100.8 18.7223H98.1128L100.273 13.8846L96.249 4.59786L98.9616 4.5957Z" fill="#FDFDFD"/>
<path d="M69.1654 20.8439C70.3407 21.7146 71.1514 22.9901 71.4407 24.4239H68.3409C68.0538 23.7613 67.5689 23.2035 66.9527 22.827C66.2769 22.4184 65.4982 22.2119 64.7088 22.2321C63.918 22.2174 63.1384 22.4196 62.4543 22.8166C61.7955 23.2141 61.2662 23.7942 60.9305 24.4865C60.5541 25.2817 60.3683 26.1536 60.3878 27.0332C60.3878 28.5779 60.8018 29.7816 61.6298 30.6444C62.4578 31.5072 63.5885 31.9421 65.0219 31.9491C66.0131 31.9726 66.9799 31.6393 67.746 31.0097C68.5298 30.3415 69.0513 29.4169 69.2176 28.4004H64.2391V26.2921H71.6912V29.131C71.4828 30.1061 71.0663 31.0246 70.47 31.8238C69.8455 32.6617 69.0296 33.3381 68.0904 33.7964C67.0412 34.3069 65.8857 34.5608 64.7192 34.5375C63.3808 34.5653 62.0591 34.2375 60.8888 33.5877C59.7952 32.9689 58.9036 32.0474 58.3212 30.934C57.7238 29.7232 57.4131 28.3912 57.4131 27.041C57.4131 25.6908 57.7238 24.3588 58.3212 23.1479C58.9058 22.0376 59.7922 21.115 60.8783 20.4865C62.039 19.8295 63.3544 19.4953 64.6879 19.5184C66.49 19.5184 67.9825 19.9603 69.1654 20.8439Z" fill="#FDFDFD"/>
<path d="M82.8798 31.4377H76.9723L75.9286 34.4018H72.8184L78.2561 19.8316H81.6169L87.0233 34.4018H83.9026L82.8798 31.4377ZM82.097 29.2041L79.926 22.9836L77.7342 29.2041H82.097Z" fill="#FDFDFD"/>
<path d="M104.485 19.8316V34.4018H101.563V24.2256L97.826 34.4018H95.2794L91.5429 24.2778V34.4018H88.5996V19.8316H92.1691L96.6049 30.7906L100.947 19.8316H104.485Z" fill="#FDFDFD"/>
<path d="M110.089 22.0026V25.8226H115.308V28.077H110.089V32.0431H115.934V34.3915H107.156V19.6647H115.944V22.013L110.089 22.0026Z" fill="#FDFDFD"/>
<path d="M127.676 32.4502C127.276 33.1072 126.697 33.636 126.006 33.974C125.168 34.3793 124.244 34.5762 123.313 34.548C122.355 34.5677 121.403 34.3901 120.516 34.0262C119.733 33.7014 119.051 33.1714 118.543 32.4919C118.043 31.8062 117.749 30.9911 117.698 30.1436H120.829C120.884 30.7108 121.14 31.24 121.549 31.6361C121.769 31.8402 122.027 31.9986 122.308 32.1021C122.589 32.2056 122.889 32.2521 123.188 32.2388C123.444 32.2565 123.701 32.2222 123.943 32.1379C124.185 32.0536 124.407 31.921 124.597 31.7483C124.761 31.5823 124.888 31.3847 124.973 31.1675C125.057 30.9503 125.096 30.7182 125.088 30.4854C125.103 30.0699 124.961 29.6639 124.691 29.3477C124.412 29.0391 124.07 28.7936 123.689 28.6276C123.284 28.4536 122.727 28.2449 122.019 28.0013C121.246 27.7552 120.492 27.4517 119.765 27.0933C119.169 26.7859 118.656 26.3381 118.272 25.7887C117.836 25.1281 117.62 24.3461 117.656 23.5551C117.632 22.9835 117.744 22.4142 117.981 21.8937C118.219 21.3732 118.576 20.9161 119.024 20.5597C119.935 19.8291 121.142 19.4638 122.645 19.4638C124.211 19.4638 125.453 19.8395 126.371 20.591C126.824 20.9578 127.197 21.414 127.467 21.9311C127.736 22.4483 127.896 23.0153 127.937 23.5969H124.774C124.706 23.0987 124.471 22.6386 124.106 22.2922C123.699 21.9319 123.168 21.7447 122.624 21.7704C122.152 21.751 121.689 21.903 121.32 22.1983C121.02 22.5031 120.842 22.9077 120.821 23.3349C120.8 23.7622 120.936 24.1823 121.205 24.5153C121.48 24.8141 121.814 25.0523 122.186 25.2146C122.714 25.4462 123.254 25.6483 123.804 25.82C124.59 26.0883 125.36 26.4019 126.11 26.7593C126.716 27.0613 127.236 27.5097 127.624 28.064C128.069 28.7445 128.288 29.5479 128.25 30.3601C128.255 31.0964 128.056 31.8198 127.676 32.4502Z" fill="#FDFDFD"/>
<defs>
<linearGradient id="paint0_linear_719_1242" x1="9.46322" y1="12.1488" x2="10.5434" y2="12.2525" gradientUnits="userSpaceOnUse">
<stop stop-color="#EE3782"/>
<stop offset="1" stop-color="#883289"/>
</linearGradient>
<linearGradient id="paint1_linear_719_1242" x1="11.8291" y1="9.20155" x2="13.649" y2="9.37622" gradientUnits="userSpaceOnUse">
<stop stop-color="#EE3782"/>
<stop offset="1" stop-color="#883289"/>
</linearGradient>
<linearGradient id="paint2_linear_719_1242" x1="8.59081" y1="5.96424" x2="10.4107" y2="6.13891" gradientUnits="userSpaceOnUse">
<stop stop-color="#EE3782"/>
<stop offset="1" stop-color="#883289"/>
</linearGradient>
<linearGradient id="paint3_linear_719_1242" x1="14.2706" y1="4.52181" x2="17.0238" y2="4.78606" gradientUnits="userSpaceOnUse">
<stop stop-color="#EE3782"/>
<stop offset="1" stop-color="#883289"/>
</linearGradient>
<linearGradient id="paint4_linear_719_1242" x1="3.85198" y1="16.4236" x2="5.55438" y2="16.587" gradientUnits="userSpaceOnUse">
<stop stop-color="#EE3782"/>
<stop offset="1" stop-color="#883289"/>
</linearGradient>
<linearGradient id="paint5_linear_719_1242" x1="4.03045" y1="12.4717" x2="5.28688" y2="12.5923" gradientUnits="userSpaceOnUse">
<stop stop-color="#EE3782"/>
<stop offset="1" stop-color="#883289"/>
</linearGradient>
<linearGradient id="paint6_linear_719_1242" x1="1.71633" y1="10.3733" x2="2.59223" y2="10.4573" gradientUnits="userSpaceOnUse">
<stop stop-color="#EE3782"/>
<stop offset="1" stop-color="#883289"/>
</linearGradient>
<linearGradient id="paint7_linear_719_1242" x1="8.15939" y1="22.8292" x2="11.305" y2="22.317" gradientUnits="userSpaceOnUse">
<stop stop-color="#EE3782"/>
<stop offset="1" stop-color="#883289"/>
</linearGradient>
<linearGradient id="paint8_linear_719_1242" x1="12.7484" y1="26.6182" x2="14.4829" y2="26.7847" gradientUnits="userSpaceOnUse">
<stop stop-color="#EE3782"/>
<stop offset="1" stop-color="#883289"/>
</linearGradient>
<linearGradient id="paint9_linear_719_1242" x1="8.51454" y1="16.3844" x2="10.8098" y2="16.6047" gradientUnits="userSpaceOnUse">
<stop stop-color="#EE3782"/>
<stop offset="1" stop-color="#883289"/>
</linearGradient>
<linearGradient id="paint10_linear_719_1242" x1="19.5509" y1="16.2494" x2="47.291" y2="20.0739" gradientUnits="userSpaceOnUse">
<stop stop-color="#EE3782"/>
<stop offset="1" stop-color="#883289"/>
</linearGradient>
</defs>
</svg>
