<svg width="45" height="16" viewBox="0 0 45 16" fill="none" xmlns="http://www.w3.org/2000/svg">
<g filter="url(#filter0_d_719_1663)">
<path d="M4.09295 13.3564H2.79621V3.20801H4.61447L10.7811 10.178V3.20801H12.0708V13.3564H10.2525L4.09295 6.39349V13.3564ZM16.0174 9.4944C16.3087 9.56018 16.6 9.61186 16.8913 9.64945C17.1826 9.68703 17.4762 9.70583 17.7722 9.70583C18.0823 9.70583 18.3689 9.67764 18.632 9.62126C18.8998 9.56018 19.13 9.46151 19.3227 9.32526C19.52 9.18431 19.675 8.99872 19.7878 8.76851C19.9006 8.53829 19.9569 8.25169 19.9569 7.90871C19.9569 7.6315 19.9193 7.37779 19.8442 7.14757C19.769 6.91736 19.6562 6.72002 19.5059 6.55558C19.3602 6.39114 19.1794 6.26428 18.9632 6.17502C18.7471 6.08105 18.4957 6.03407 18.2091 6.03407C17.9413 6.03407 17.6994 6.0834 17.4833 6.18206C17.2718 6.28073 17.0839 6.41463 16.9195 6.58377C16.7597 6.74821 16.6211 6.94085 16.5036 7.16167C16.3909 7.38249 16.2969 7.61271 16.2217 7.85233C16.1466 8.09194 16.0925 8.33391 16.0597 8.57822C16.0268 8.82254 16.0103 9.05276 16.0103 9.26888C16.0103 9.30647 16.0103 9.34405 16.0103 9.38164C16.0103 9.41923 16.0127 9.45681 16.0174 9.4944ZM21.888 7.88756C21.888 8.22115 21.8339 8.51949 21.7259 8.7826C21.6178 9.04101 21.4698 9.26888 21.2819 9.46621C21.0986 9.66354 20.8849 9.83033 20.6405 9.96659C20.3962 10.1028 20.1355 10.2156 19.8583 10.3049C19.5811 10.3894 19.2945 10.4505 18.9985 10.4881C18.7072 10.5257 18.4229 10.5445 18.1457 10.5445C17.7933 10.5445 17.4457 10.521 17.1027 10.474C16.7597 10.4223 16.4214 10.3425 16.0878 10.2344C16.1395 10.5445 16.2217 10.8405 16.3345 11.1224C16.4473 11.3996 16.5976 11.6439 16.7855 11.8553C16.9735 12.062 17.2037 12.2265 17.4762 12.3486C17.7534 12.4708 18.0799 12.5319 18.4558 12.5319C18.7048 12.5319 18.9421 12.4943 19.1676 12.4191C19.3931 12.344 19.5999 12.2382 19.7878 12.102C19.9757 11.9657 20.1402 11.8036 20.2811 11.6157C20.4268 11.4278 20.5442 11.2187 20.6335 10.9885L21.6624 11.369C21.5074 11.7402 21.2936 12.062 21.0211 12.3346C20.7533 12.6024 20.4479 12.8255 20.1049 13.0041C19.7667 13.1779 19.4049 13.3071 19.0196 13.3917C18.639 13.4763 18.2608 13.5185 17.885 13.5185C17.2648 13.5185 16.6916 13.4152 16.1654 13.2084C15.6392 12.997 15.1858 12.7034 14.8052 12.3275C14.4246 11.9516 14.1263 11.5029 13.9102 10.9814C13.694 10.4599 13.586 9.88906 13.586 9.26888C13.586 8.6487 13.694 8.07785 13.9102 7.55633C14.1263 7.03481 14.4246 6.58612 14.8052 6.21025C15.1858 5.83439 15.6392 5.54309 16.1654 5.33636C16.6916 5.12493 17.2648 5.01922 17.885 5.01922C18.1857 5.01922 18.4934 5.04036 18.8082 5.08265C19.123 5.12493 19.4284 5.19306 19.7244 5.28703C20.0204 5.3763 20.2999 5.49375 20.563 5.6394C20.8261 5.78505 21.054 5.96594 21.2466 6.18206C21.444 6.39349 21.599 6.64015 21.7118 6.92205C21.8292 7.20395 21.888 7.52579 21.888 7.88756ZM27.0397 13.3564H24.8973L22.6702 5.21655H25.0523L26.4477 10.925L27.6106 5.21655H29.753L31.1766 11.0801L32.5509 5.21655H34.2L31.7334 13.3564H29.5909L28.3858 8.40908L27.0397 13.3564ZM42.4033 10.7559C42.4033 11.113 42.3516 11.4301 42.2483 11.7073C42.1449 11.9845 42.0039 12.2265 41.8254 12.4332C41.6469 12.6352 41.4354 12.8067 41.1911 12.9477C40.9468 13.0839 40.6837 13.1944 40.4018 13.2789C40.1246 13.3635 39.8333 13.4246 39.5279 13.4622C39.2225 13.4997 38.9195 13.5185 38.6188 13.5185C38.2147 13.5185 37.8577 13.4927 37.5476 13.441C37.2375 13.3893 36.9415 13.3071 36.6596 13.1944C36.3777 13.0769 36.0958 12.9265 35.8139 12.7433C35.5367 12.5601 35.2266 12.3369 34.8836 12.0738L36.272 10.9391C36.3988 11.1788 36.5656 11.3972 36.7723 11.5946C36.9838 11.7872 37.2022 11.954 37.4278 12.0949C37.6533 12.2359 37.8717 12.344 38.0832 12.4191C38.2946 12.4943 38.4661 12.5319 38.5976 12.5319C38.7057 12.5319 38.8279 12.5295 38.9641 12.5248C39.1004 12.5154 39.239 12.5013 39.3799 12.4826C39.5209 12.4591 39.6595 12.4262 39.7957 12.3839C39.932 12.3416 40.0518 12.2852 40.1551 12.2147C40.2632 12.1396 40.3478 12.048 40.4089 11.9399C40.4746 11.8271 40.5075 11.6932 40.5075 11.5382C40.5075 11.3784 40.4652 11.2398 40.3807 11.1224C40.3008 11.0002 40.1951 10.8945 40.0635 10.8052C39.932 10.716 39.7816 10.6408 39.6125 10.5797C39.4433 10.5186 39.2719 10.4646 39.098 10.4176C38.9289 10.3706 38.7644 10.3307 38.6047 10.2978C38.4449 10.2602 38.3063 10.225 38.1889 10.1921C37.9728 10.131 37.7449 10.0699 37.5053 10.0089C37.2657 9.94309 37.0284 9.87027 36.7935 9.7904C36.5586 9.70583 36.333 9.60716 36.1169 9.4944C35.9055 9.38164 35.7176 9.24774 35.5531 9.09269C35.3934 8.93295 35.2642 8.74736 35.1655 8.53594C35.0715 8.31981 35.0245 8.06845 35.0245 7.78185C35.0245 7.25564 35.1279 6.81634 35.3346 6.46396C35.5461 6.10689 35.8233 5.82264 36.1662 5.61121C36.5092 5.39509 36.8992 5.24239 37.3361 5.15312C37.7731 5.06386 38.2171 5.01922 38.6681 5.01922C38.9782 5.01922 39.3047 5.05211 39.6477 5.11789C39.9907 5.17897 40.3243 5.27293 40.6485 5.39979C40.9727 5.52194 41.2757 5.67229 41.5576 5.85083C41.8395 6.02937 42.0744 6.23375 42.2624 6.46396L40.874 7.60566C40.7706 7.32376 40.6344 7.0818 40.4652 6.87977C40.3008 6.67774 40.1199 6.5133 39.9226 6.38644C39.7299 6.25489 39.5303 6.15857 39.3235 6.09749C39.1215 6.03641 38.9336 6.00588 38.7597 6.00588C38.5906 6.00588 38.4003 6.01292 38.1889 6.02702C37.9775 6.04111 37.7778 6.08105 37.5898 6.14683C37.4066 6.2126 37.2492 6.31362 37.1177 6.44987C36.9908 6.58142 36.9274 6.76466 36.9274 6.99958C36.9274 7.16872 36.965 7.31437 37.0401 7.43652C37.12 7.55398 37.2234 7.65735 37.3502 7.74661C37.4771 7.83118 37.6204 7.90401 37.7801 7.96509C37.9446 8.02147 38.1114 8.07315 38.2805 8.12013C38.4496 8.16242 38.6141 8.20001 38.7738 8.23289C38.9336 8.26578 39.0769 8.30102 39.2037 8.33861C39.4199 8.39968 39.6477 8.46311 39.8873 8.52889C40.1317 8.58997 40.3713 8.66279 40.6062 8.74736C40.8411 8.82723 41.0666 8.92355 41.2828 9.03631C41.5036 9.14437 41.6962 9.27828 41.8606 9.43802C42.0251 9.59776 42.1566 9.7857 42.2553 10.0018C42.354 10.2132 42.4033 10.4646 42.4033 10.7559Z" fill="#5D5FEF"/>
</g>
<defs>
<filter id="filter0_d_719_1663" x="0.390343" y="0.802452" width="44.4185" height="15.1217" filterUnits="userSpaceOnUse" color-interpolation-filters="sRGB">
<feFlood flood-opacity="0" result="BackgroundImageFix"/>
<feColorMatrix in="SourceAlpha" type="matrix" values="0 0 0 0 0 0 0 0 0 0 0 0 0 0 0 0 0 0 127 0" result="hardAlpha"/>
<feMorphology radius="1.20278" operator="dilate" in="SourceAlpha" result="effect1_dropShadow_719_1663"/>
<feOffset/>
<feGaussianBlur stdDeviation="0.601389"/>
<feComposite in2="hardAlpha" operator="out"/>
<feColorMatrix type="matrix" values="0 0 0 0 0.0416667 0 0 0 0 0.808333 0 0 0 0 1 0 0 0 0.3 0"/>
<feBlend mode="normal" in2="BackgroundImageFix" result="effect1_dropShadow_719_1663"/>
<feBlend mode="normal" in="SourceGraphic" in2="effect1_dropShadow_719_1663" result="shape"/>
</filter>
</defs>
</svg>
