<svg width="156" height="16" viewBox="0 0 156 16" fill="none" xmlns="http://www.w3.org/2000/svg">
<g filter="url(#filter0_d_719_1732)">
<path d="M9.92126 9.37337C9.92126 9.75078 9.87256 10.0836 9.77516 10.3717C9.68183 10.6598 9.54791 10.9094 9.37341 11.1204C9.20296 11.3314 9.00006 11.508 8.76468 11.65C8.52931 11.792 8.27162 11.9057 7.9916 11.9909C7.71565 12.0761 7.42143 12.137 7.10895 12.1735C6.80053 12.21 6.48602 12.2283 6.16543 12.2283C5.74338 12.2283 5.3538 12.1958 4.99668 12.1309C4.63956 12.07 4.30273 11.9726 3.9862 11.8387C3.67372 11.7007 3.37139 11.5242 3.0792 11.3091C2.79107 11.094 2.50294 10.8323 2.21481 10.5239L3.45661 9.2638C3.57024 9.54381 3.72648 9.80354 3.92533 10.043C4.12418 10.2783 4.34129 10.4812 4.57666 10.6517C4.81609 10.8221 5.06364 10.9561 5.3193 11.0535C5.57497 11.1508 5.81643 11.1995 6.04369 11.1995C6.31152 11.1995 6.56313 11.1813 6.7985 11.1448C7.03388 11.1042 7.23881 11.0392 7.41331 10.95C7.58782 10.8607 7.72376 10.743 7.82116 10.5969C7.92261 10.4468 7.97334 10.2601 7.97334 10.0369C7.97334 9.86644 7.93479 9.72034 7.85768 9.5986C7.78058 9.47686 7.67912 9.37337 7.55332 9.28815C7.43158 9.19887 7.29157 9.1238 7.1333 9.06292C6.97503 9.00205 6.81271 8.95132 6.64632 8.91074C6.484 8.8661 6.3237 8.82755 6.16543 8.79508C6.00716 8.75856 5.86716 8.72204 5.74541 8.68551C5.50598 8.61653 5.2564 8.54348 4.99668 8.46637C4.73696 8.38521 4.48129 8.2939 4.22969 8.19245C3.97808 8.09099 3.73865 7.97534 3.51139 7.84547C3.28819 7.71156 3.09137 7.55532 2.92093 7.37676C2.75049 7.19414 2.61454 6.98514 2.51309 6.74977C2.41163 6.51034 2.36091 6.23641 2.36091 5.92799C2.36091 5.5587 2.40554 5.23202 2.49482 4.94795C2.58816 4.65982 2.71802 4.41024 2.88441 4.19922C3.05079 3.98819 3.24761 3.81166 3.47487 3.66963C3.70213 3.52353 3.9517 3.40788 4.2236 3.32266C4.4955 3.23338 4.78363 3.17047 5.08799 3.13395C5.39641 3.09337 5.71092 3.07308 6.03151 3.07308C6.46979 3.07308 6.86749 3.11366 7.22461 3.19482C7.58579 3.27599 7.91856 3.39164 8.22292 3.5418C8.52728 3.69195 8.80526 3.87254 9.05687 4.08356C9.31253 4.29053 9.55196 4.52184 9.77516 4.77751L8.53337 6.03756C8.43597 5.74538 8.30002 5.4816 8.12552 5.24622C7.95508 5.01085 7.76435 4.80997 7.55332 4.64359C7.3423 4.47314 7.12113 4.34328 6.88981 4.254C6.6585 4.16067 6.4353 4.114 6.22022 4.114C5.9402 4.114 5.68251 4.13429 5.44714 4.17487C5.21176 4.21139 5.00885 4.27429 4.83841 4.36357C4.67203 4.44879 4.54217 4.56648 4.44883 4.71663C4.35549 4.86273 4.30882 5.04534 4.30882 5.26448C4.30882 5.43899 4.34332 5.58711 4.41231 5.70885C4.48129 5.8306 4.5726 5.93408 4.68623 6.0193C4.80392 6.10452 4.93581 6.17554 5.0819 6.23236C5.228 6.28511 5.37815 6.33178 5.53236 6.37236C5.69063 6.41294 5.84484 6.44947 5.99499 6.48193C6.1492 6.51034 6.2892 6.54281 6.41501 6.57933C6.6585 6.64832 6.91416 6.72136 7.182 6.79847C7.44984 6.87557 7.71362 6.96688 7.97334 7.0724C8.23306 7.17385 8.48061 7.29154 8.71598 7.42546C8.95136 7.55937 9.15832 7.71967 9.33688 7.90635C9.51544 8.08896 9.65748 8.30202 9.76299 8.54551C9.8685 8.78494 9.92126 9.06089 9.92126 9.37337ZM15.4119 12.0518H12.9953V4.40618H10.6091V3.28613H17.7981V4.40618H15.4119V12.0518ZM21.4566 12.0518H19.0399V3.28613H23.3497C23.7555 3.28613 24.1471 3.33483 24.5245 3.43223C24.902 3.52556 25.2347 3.67572 25.5229 3.88268C25.815 4.08559 26.0464 4.34937 26.2168 4.67402C26.3913 4.99868 26.4786 5.39232 26.4786 5.85495C26.4786 6.21612 26.4014 6.55701 26.2472 6.8776C26.0971 7.19414 25.8942 7.47821 25.6385 7.72982C25.3869 7.97736 25.0967 8.18433 24.768 8.35072C24.4393 8.51304 24.0984 8.62058 23.7454 8.67334C23.9036 8.94118 24.068 9.19481 24.2384 9.43424C24.4129 9.67368 24.5874 9.8989 24.7619 10.1099C24.9405 10.3169 25.117 10.5097 25.2915 10.6882C25.466 10.8627 25.6324 11.023 25.7907 11.1691C26.164 11.51 26.5333 11.8042 26.8986 12.0518H23.8854C23.6419 11.8204 23.4106 11.5425 23.1914 11.2178C23.0048 10.9419 22.8161 10.601 22.6253 10.1951C22.4387 9.78528 22.2946 9.3125 22.1931 8.77682H21.4566V12.0518ZM24.0254 5.85495C24.0254 5.26651 23.8813 4.83432 23.5932 4.55837C23.3091 4.28241 22.881 4.14443 22.3088 4.14443H21.4566V7.94896H22.3088C22.6132 7.94896 22.8729 7.89214 23.088 7.77852C23.3071 7.66083 23.4857 7.50662 23.6236 7.31588C23.7616 7.12109 23.8631 6.89789 23.928 6.64629C23.9929 6.39468 24.0254 6.1309 24.0254 5.85495ZM36.3825 7.85765V7.97331C36.3744 8.31419 36.3379 8.66725 36.2729 9.03249C36.2121 9.39772 36.1248 9.76296 36.0112 10.1282C35.8975 10.4934 35.7616 10.8546 35.6033 11.2117C35.4451 11.5688 35.2665 11.9097 35.0676 12.2344C34.8729 12.5631 34.6618 12.8695 34.4346 13.1535C34.2073 13.4417 33.9679 13.6953 33.7163 13.9145L32.8093 13.391C32.9513 13.1515 33.0792 12.8898 33.1928 12.6057C33.3105 12.3257 33.416 12.0315 33.5093 11.723C33.6027 11.4146 33.6818 11.0981 33.7467 10.7734C33.8157 10.4488 33.8725 10.1262 33.9172 9.80557C33.9618 9.48497 33.9943 9.17046 34.0146 8.86204C34.0389 8.54957 34.0511 8.25332 34.0511 7.97331C34.0511 7.75417 34.0491 7.50662 34.045 7.23066C34.045 6.95065 34.0288 6.66658 33.9963 6.37845C33.9679 6.09032 33.9192 5.81031 33.8502 5.53841C33.7812 5.26246 33.6777 5.01694 33.5398 4.80185C33.4058 4.58677 33.2313 4.4143 33.0162 4.28444C32.8052 4.15458 32.5414 4.08965 32.2249 4.08965C31.9449 4.08965 31.7034 4.13835 31.5005 4.23574C31.3017 4.32908 31.1312 4.45691 30.9892 4.61924C30.8512 4.77751 30.7396 4.96215 30.6544 5.17318C30.5732 5.3842 30.5083 5.6074 30.4596 5.84277C30.415 6.07409 30.3845 6.30946 30.3683 6.54889C30.3561 6.78427 30.35 7.00746 30.35 7.21849V8.91683H32.9736V9.92122H30.35V12.0518H27.9334V7.5959C27.9334 6.95877 28.0349 6.36628 28.2378 5.81842C28.4407 5.27057 28.7268 4.79577 29.0961 4.39401C29.4694 3.98819 29.9158 3.67166 30.4353 3.4444C30.9588 3.21308 31.5411 3.09743 32.1823 3.09743C32.6165 3.09743 33.0223 3.16033 33.3997 3.28613C33.7812 3.40788 34.1282 3.57832 34.4407 3.79746C34.7531 4.01254 35.0311 4.27024 35.2746 4.57054C35.5222 4.86679 35.7271 5.19144 35.8894 5.5445C36.0558 5.89756 36.1816 6.27091 36.2668 6.66455C36.3521 7.05819 36.3906 7.45589 36.3825 7.85765ZM41.5627 12.0518H39.1461V4.40618H36.7599V3.28613H43.9489V4.40618H41.5627V12.0518ZM51.4849 12.0518H45.1907V3.28613H51.4849V4.40618H47.6074V7.11501H50.6023V8.22897H47.6074V10.9317H51.4849V12.0518ZM60.7375 5.45928L59.6966 5.89756C59.6155 5.63378 59.5059 5.39232 59.3679 5.17318C59.234 4.95404 59.0717 4.76736 58.8809 4.61315C58.6943 4.45488 58.4812 4.33314 58.2418 4.24792C58.0023 4.15864 57.7406 4.114 57.4565 4.114C57.1522 4.114 56.8721 4.16472 56.6165 4.26618C56.3649 4.36763 56.1376 4.50561 55.9347 4.68011C55.7359 4.85055 55.5614 5.05143 55.4112 5.28275C55.2611 5.51406 55.1353 5.76161 55.0338 6.02539C54.9364 6.28511 54.8613 6.55498 54.8086 6.83499C54.7599 7.11501 54.7355 7.38893 54.7355 7.65677C54.7355 8.08288 54.7842 8.50695 54.8816 8.929C54.9831 9.35105 55.1413 9.73049 55.3564 10.0673C55.5756 10.4041 55.8576 10.6781 56.2025 10.8891C56.5475 11.0961 56.9655 11.1995 57.4565 11.1995C57.7244 11.1995 57.9334 11.1407 58.0835 11.023C58.2337 10.9013 58.3087 10.6902 58.3087 10.3899V7.69938H60.7254V12.0518H60.0253L59.5992 11.3639C59.2096 11.6601 58.7795 11.8793 58.3087 12.0213C57.842 12.1593 57.3652 12.2283 56.8782 12.2283C56.4481 12.2283 56.0341 12.1755 55.6364 12.07C55.2428 11.9645 54.8755 11.8144 54.5346 11.6196C54.1938 11.4248 53.8833 11.1894 53.6033 10.9134C53.3273 10.6375 53.0899 10.3311 52.8911 9.99427C52.6963 9.65744 52.5441 9.29221 52.4345 8.89857C52.329 8.50087 52.2763 8.08694 52.2763 7.65677C52.2763 7.22661 52.329 6.8147 52.4345 6.42106C52.5441 6.02336 52.6963 5.6561 52.8911 5.31927C53.0899 4.97838 53.3273 4.66996 53.6033 4.39401C53.8833 4.11805 54.1938 3.88268 54.5346 3.68789C54.8755 3.4931 55.2428 3.34295 55.6364 3.23743C56.0341 3.13192 56.4481 3.07917 56.8782 3.07917C57.2922 3.07917 57.696 3.12786 58.0896 3.22526C58.4873 3.32266 58.8566 3.47078 59.1975 3.66963C59.5384 3.86442 59.8407 4.11197 60.1045 4.41227C60.3723 4.70852 60.5833 5.05752 60.7375 5.45928ZM64.8586 12.0518H62.442V3.28613H64.8586V12.0518ZM74.8112 5.45928L73.7703 5.89756C73.6892 5.63378 73.5796 5.39232 73.4416 5.17318C73.3077 4.95404 73.1454 4.76736 72.9546 4.61315C72.768 4.45488 72.5549 4.33314 72.3155 4.24792C72.076 4.15864 71.8143 4.114 71.5302 4.114C71.2259 4.114 70.9458 4.16472 70.6902 4.26618C70.4386 4.36357 70.2113 4.49952 70.0084 4.67402C69.8096 4.84852 69.6351 5.05143 69.4849 5.28275C69.3348 5.51406 69.209 5.76161 69.1075 6.02539C69.006 6.28511 68.931 6.55498 68.8823 6.83499C68.8336 7.11501 68.8092 7.38893 68.8092 7.65677C68.8092 8.08288 68.8579 8.50695 68.9553 8.929C69.0568 9.35105 69.215 9.73049 69.4301 10.0673C69.6493 10.4041 69.9313 10.6781 70.2762 10.8891C70.6212 11.0961 71.0392 11.1995 71.5302 11.1995C71.7899 11.1995 72.0355 11.1569 72.2668 11.0717C72.4981 10.9824 72.7071 10.8627 72.8938 10.7126C73.0845 10.5584 73.2509 10.3778 73.3929 10.1708C73.5349 9.96383 73.6486 9.74064 73.7338 9.5012L74.7869 9.92122C74.6327 10.3067 74.4217 10.6456 74.1538 10.9378C73.886 11.2259 73.5796 11.4654 73.2346 11.6561C72.8938 11.8468 72.5265 11.9889 72.1329 12.0822C71.7433 12.1796 71.3496 12.2283 70.9519 12.2283C70.5218 12.2283 70.1078 12.1755 69.7101 12.07C69.3165 11.9645 68.9492 11.8144 68.6083 11.6196C68.2675 11.4248 67.957 11.1894 67.677 10.9134C67.401 10.6375 67.1636 10.3311 66.9648 9.99427C66.77 9.65744 66.6178 9.29221 66.5082 8.89857C66.4027 8.50087 66.35 8.08694 66.35 7.65677C66.35 7.22661 66.4027 6.8147 66.5082 6.42106C66.6178 6.02336 66.77 5.6561 66.9648 5.31927C67.1636 4.97838 67.401 4.66996 67.677 4.39401C67.957 4.11805 68.2675 3.88268 68.6083 3.68789C68.9492 3.4931 69.3165 3.34295 69.7101 3.23743C70.1078 3.13192 70.5218 3.07917 70.9519 3.07917C71.3659 3.07917 71.7697 3.12786 72.1633 3.22526C72.561 3.32266 72.9303 3.47078 73.2712 3.66963C73.6121 3.86442 73.9144 4.11197 74.1782 4.41227C74.446 4.70852 74.657 5.05752 74.8112 5.45928ZM82.1707 12.0518H79.7541V3.28613H82.1707V12.0518ZM85.2813 12.0518H84.1612V3.28613H85.7317L91.0581 9.30641V3.28613H92.1721V12.0518H90.6015L85.2813 6.03756V12.0518ZM98.6976 12.0518H96.4879L93.213 3.28613H95.6783L98.1071 10.3412L100.305 3.28613H101.802L98.6976 12.0518ZM109.155 12.0518H102.861V3.28613H109.155V4.40618H105.278V7.11501H108.273V8.22897H105.278V10.9317H109.155V12.0518ZM117.836 9.37337C117.836 9.75078 117.787 10.0836 117.69 10.3717C117.596 10.6598 117.463 10.9094 117.288 11.1204C117.118 11.3314 116.915 11.508 116.679 11.65C116.444 11.792 116.186 11.9057 115.906 11.9909C115.63 12.0761 115.336 12.137 115.024 12.1735C114.715 12.21 114.401 12.2283 114.08 12.2283C113.658 12.2283 113.268 12.1958 112.911 12.1309C112.554 12.07 112.217 11.9726 111.901 11.8387C111.588 11.7007 111.286 11.5242 110.994 11.3091C110.706 11.094 110.418 10.8323 110.129 10.5239L111.371 9.2638C111.485 9.54381 111.641 9.80354 111.84 10.043C112.039 10.2783 112.256 10.4812 112.491 10.6517C112.731 10.8221 112.978 10.9561 113.234 11.0535C113.49 11.1508 113.731 11.1995 113.958 11.1995C114.226 11.1995 114.478 11.1813 114.713 11.1448C114.948 11.1042 115.153 11.0392 115.328 10.95C115.502 10.8607 115.638 10.743 115.736 10.5969C115.837 10.4468 115.888 10.2601 115.888 10.0369C115.888 9.86644 115.849 9.72034 115.772 9.5986C115.695 9.47686 115.594 9.37337 115.468 9.28815C115.346 9.19887 115.206 9.1238 115.048 9.06292C114.89 9.00205 114.727 8.95132 114.561 8.91074C114.399 8.8661 114.238 8.82755 114.08 8.79508C113.922 8.75856 113.782 8.72204 113.66 8.68551C113.421 8.61653 113.171 8.54348 112.911 8.46637C112.652 8.38521 112.396 8.2939 112.144 8.19245C111.893 8.09099 111.653 7.97534 111.426 7.84547C111.203 7.71156 111.006 7.55532 110.836 7.37676C110.665 7.19414 110.529 6.98514 110.428 6.74977C110.326 6.51034 110.276 6.23641 110.276 5.92799C110.276 5.5587 110.32 5.23202 110.409 4.94795C110.503 4.65982 110.633 4.41024 110.799 4.19922C110.965 3.98819 111.162 3.81166 111.389 3.66963C111.617 3.52353 111.866 3.40788 112.138 3.32266C112.41 3.23338 112.698 3.17047 113.003 3.13395C113.311 3.09337 113.626 3.07308 113.946 3.07308C114.384 3.07308 114.782 3.11366 115.139 3.19482C115.5 3.27599 115.833 3.39164 116.138 3.5418C116.442 3.69195 116.72 3.87254 116.971 4.08356C117.227 4.29053 117.467 4.52184 117.69 4.77751L116.448 6.03756C116.351 5.74538 116.215 5.4816 116.04 5.24622C115.87 5.01085 115.679 4.80997 115.468 4.64359C115.257 4.47314 115.036 4.34328 114.804 4.254C114.573 4.16067 114.35 4.114 114.135 4.114C113.855 4.114 113.597 4.13429 113.362 4.17487C113.126 4.21139 112.923 4.27429 112.753 4.36357C112.587 4.44879 112.457 4.56648 112.363 4.71663C112.27 4.86273 112.223 5.04534 112.223 5.26448C112.223 5.43899 112.258 5.58711 112.327 5.70885C112.396 5.8306 112.487 5.93408 112.601 6.0193C112.719 6.10452 112.85 6.17554 112.996 6.23236C113.143 6.28511 113.293 6.33178 113.447 6.37236C113.605 6.41294 113.759 6.44947 113.91 6.48193C114.064 6.51034 114.204 6.54281 114.33 6.57933C114.573 6.64832 114.829 6.72136 115.097 6.79847C115.364 6.87557 115.628 6.96688 115.888 7.0724C116.148 7.17385 116.395 7.29154 116.631 7.42546C116.866 7.55937 117.073 7.71967 117.251 7.90635C117.43 8.08896 117.572 8.30202 117.678 8.54551C117.783 8.78494 117.836 9.06089 117.836 9.37337ZM123.327 12.0518H120.91V4.40618H118.524V3.28613H125.713V4.40618H123.327V12.0518ZM135.702 7.65677C135.702 8.36289 135.58 9.00002 135.337 9.56816C135.093 10.1322 134.756 10.6111 134.326 11.0048C133.896 11.3984 133.387 11.7007 132.798 11.9118C132.21 12.1228 131.573 12.2283 130.887 12.2283C130.201 12.2283 129.564 12.1228 128.976 11.9118C128.387 11.7007 127.878 11.3984 127.448 11.0048C127.017 10.6111 126.681 10.1322 126.437 9.56816C126.194 9.00002 126.072 8.36289 126.072 7.65677C126.072 6.93848 126.192 6.29729 126.431 5.7332C126.675 5.16506 127.009 4.6862 127.435 4.29661C127.866 3.90297 128.375 3.60267 128.963 3.3957C129.552 3.18468 130.193 3.07917 130.887 3.07917C131.581 3.07917 132.222 3.18468 132.81 3.3957C133.399 3.60267 133.906 3.90297 134.332 4.29661C134.762 4.6862 135.097 5.16506 135.337 5.7332C135.58 6.29729 135.702 6.93848 135.702 7.65677ZM133.243 7.65677C133.243 7.38893 133.23 7.11501 133.206 6.83499C133.182 6.55498 133.137 6.28308 133.072 6.0193C133.007 5.75552 132.918 5.50797 132.804 5.27666C132.695 5.04534 132.553 4.84447 132.378 4.67402C132.204 4.49952 131.993 4.36357 131.745 4.26618C131.502 4.16472 131.216 4.114 130.887 4.114C130.554 4.114 130.264 4.16472 130.016 4.26618C129.769 4.36357 129.558 4.49749 129.383 4.66794C129.209 4.83838 129.067 5.03926 128.957 5.27057C128.848 5.50189 128.76 5.74944 128.695 6.01322C128.635 6.27294 128.592 6.54483 128.568 6.82891C128.543 7.10892 128.531 7.38487 128.531 7.65677C128.531 7.92461 128.543 8.19853 128.568 8.47855C128.592 8.75856 128.637 9.03046 128.702 9.29424C128.767 9.55396 128.854 9.79948 128.963 10.0308C129.077 10.2621 129.221 10.465 129.396 10.6395C129.57 10.81 129.779 10.9459 130.023 11.0474C130.27 11.1488 130.558 11.1995 130.887 11.1995C131.207 11.1995 131.488 11.1488 131.727 11.0474C131.966 10.9419 132.173 10.8018 132.348 10.6273C132.522 10.4488 132.666 10.2438 132.78 10.0125C132.898 9.77716 132.989 9.52961 133.054 9.26989C133.123 9.00611 133.172 8.73624 133.2 8.46029C133.228 8.18433 133.243 7.91649 133.243 7.65677ZM139.622 12.0518H137.205V3.28613H141.515C141.921 3.28613 142.313 3.33483 142.69 3.43223C143.067 3.52556 143.4 3.67572 143.688 3.88268C143.981 4.08559 144.212 4.34937 144.382 4.67402C144.557 4.99868 144.644 5.39232 144.644 5.85495C144.644 6.21612 144.567 6.55701 144.413 6.8776C144.263 7.19414 144.06 7.47821 143.804 7.72982C143.552 7.97736 143.262 8.18433 142.934 8.35072C142.605 8.51304 142.264 8.62058 141.911 8.67334C142.069 8.94118 142.234 9.19481 142.404 9.43424C142.578 9.67368 142.753 9.8989 142.927 10.1099C143.106 10.3169 143.283 10.5097 143.457 10.6882C143.632 10.8627 143.798 11.023 143.956 11.1691C144.33 11.51 144.699 11.8042 145.064 12.0518H142.051C141.807 11.8204 141.576 11.5425 141.357 11.2178C141.17 10.9419 140.982 10.601 140.791 10.1951C140.604 9.78528 140.46 9.3125 140.359 8.77682H139.622V12.0518ZM142.191 5.85495C142.191 5.26651 142.047 4.83432 141.759 4.55837C141.475 4.28241 141.046 4.14443 140.474 4.14443H139.622V7.94896H140.474C140.779 7.94896 141.038 7.89214 141.253 7.77852C141.473 7.66083 141.651 7.50662 141.789 7.31588C141.927 7.12109 142.029 6.89789 142.094 6.64629C142.158 6.39468 142.191 6.1309 142.191 5.85495ZM153.385 9.37337C153.385 9.75078 153.337 10.0836 153.239 10.3717C153.146 10.6598 153.012 10.9094 152.837 11.1204C152.667 11.3314 152.464 11.508 152.229 11.65C151.993 11.792 151.736 11.9057 151.456 11.9909C151.18 12.0761 150.886 12.137 150.573 12.1735C150.265 12.21 149.95 12.2283 149.63 12.2283C149.207 12.2283 148.818 12.1958 148.461 12.1309C148.104 12.07 147.767 11.9726 147.45 11.8387C147.138 11.7007 146.835 11.5242 146.543 11.3091C146.255 11.094 145.967 10.8323 145.679 10.5239L146.921 9.2638C147.034 9.54381 147.191 9.80354 147.389 10.043C147.588 10.2783 147.805 10.4812 148.041 10.6517C148.28 10.8221 148.528 10.9561 148.783 11.0535C149.039 11.1508 149.281 11.1995 149.508 11.1995C149.776 11.1995 150.027 11.1813 150.263 11.1448C150.498 11.1042 150.703 11.0392 150.877 10.95C151.052 10.8607 151.188 10.743 151.285 10.5969C151.387 10.4468 151.437 10.2601 151.437 10.0369C151.437 9.86644 151.399 9.72034 151.322 9.5986C151.245 9.47686 151.143 9.37337 151.017 9.28815C150.896 9.19887 150.756 9.1238 150.597 9.06292C150.439 9.00205 150.277 8.95132 150.11 8.91074C149.948 8.8661 149.788 8.82755 149.63 8.79508C149.471 8.75856 149.331 8.72204 149.209 8.68551C148.97 8.61653 148.72 8.54348 148.461 8.46637C148.201 8.38521 147.945 8.2939 147.694 8.19245C147.442 8.09099 147.203 7.97534 146.975 7.84547C146.752 7.71156 146.555 7.55532 146.385 7.37676C146.215 7.19414 146.079 6.98514 145.977 6.74977C145.876 6.51034 145.825 6.23641 145.825 5.92799C145.825 5.5587 145.87 5.23202 145.959 4.94795C146.052 4.65982 146.182 4.41024 146.348 4.19922C146.515 3.98819 146.712 3.81166 146.939 3.66963C147.166 3.52353 147.416 3.40788 147.688 3.32266C147.96 3.23338 148.248 3.17047 148.552 3.13395C148.86 3.09337 149.175 3.07308 149.496 3.07308C149.934 3.07308 150.332 3.11366 150.689 3.19482C151.05 3.27599 151.383 3.39164 151.687 3.5418C151.991 3.69195 152.269 3.87254 152.521 4.08356C152.777 4.29053 153.016 4.52184 153.239 4.77751L151.997 6.03756C151.9 5.74538 151.764 5.4816 151.59 5.24622C151.419 5.01085 151.228 4.80997 151.017 4.64359C150.806 4.47314 150.585 4.34328 150.354 4.254C150.123 4.16067 149.899 4.114 149.684 4.114C149.404 4.114 149.147 4.13429 148.911 4.17487C148.676 4.21139 148.473 4.27429 148.302 4.36357C148.136 4.44879 148.006 4.56648 147.913 4.71663C147.82 4.86273 147.773 5.04534 147.773 5.26448C147.773 5.43899 147.807 5.58711 147.876 5.70885C147.945 5.8306 148.037 5.93408 148.15 6.0193C148.268 6.10452 148.4 6.17554 148.546 6.23236C148.692 6.28511 148.842 6.33178 148.996 6.37236C149.155 6.41294 149.309 6.44947 149.459 6.48193C149.613 6.51034 149.753 6.54281 149.879 6.57933C150.123 6.64832 150.378 6.72136 150.646 6.79847C150.914 6.87557 151.178 6.96688 151.437 7.0724C151.697 7.17385 151.945 7.29154 152.18 7.42546C152.415 7.55937 152.622 7.71967 152.801 7.90635C152.98 8.08896 153.122 8.30202 153.227 8.54551C153.333 8.78494 153.385 9.06089 153.385 9.37337Z" fill="#5D5FEF"/>
</g>
<defs>
<filter id="filter0_d_719_1732" x="0.137066" y="0.995464" width="155.326" height="14.9969" filterUnits="userSpaceOnUse" color-interpolation-filters="sRGB">
<feFlood flood-opacity="0" result="BackgroundImageFix"/>
<feColorMatrix in="SourceAlpha" type="matrix" values="0 0 0 0 0 0 0 0 0 0 0 0 0 0 0 0 0 0 127 0" result="hardAlpha"/>
<feMorphology radius="1.03889" operator="dilate" in="SourceAlpha" result="effect1_dropShadow_719_1732"/>
<feOffset/>
<feGaussianBlur stdDeviation="0.519445"/>
<feComposite in2="hardAlpha" operator="out"/>
<feColorMatrix type="matrix" values="0 0 0 0 0.0416667 0 0 0 0 0.808333 0 0 0 0 1 0 0 0 0.3 0"/>
<feBlend mode="normal" in2="BackgroundImageFix" result="effect1_dropShadow_719_1732"/>
<feBlend mode="normal" in="SourceGraphic" in2="effect1_dropShadow_719_1732" result="shape"/>
</filter>
</defs>
</svg>
