<svg width="180" height="30" viewBox="0 0 180 30" fill="none" xmlns="http://www.w3.org/2000/svg">
<g filter="url(#filter0_d_719_1270)">
<path d="M10.1416 6.34375C9.9834 6.81836 9.8457 7.31055 9.72852 7.82031C9.61133 8.32422 9.51465 8.83105 9.43848 9.34082C9.3623 9.84473 9.30371 10.3428 9.2627 10.835C9.22754 11.3271 9.20996 11.793 9.20996 12.2324C9.20996 12.5547 9.20996 12.918 9.20996 13.3223C9.21582 13.7207 9.23926 14.1279 9.28027 14.5439C9.32715 14.96 9.40039 15.3672 9.5 15.7656C9.59961 16.1582 9.74609 16.5098 9.93945 16.8203C10.1387 17.1309 10.3906 17.3799 10.6953 17.5674C11.0059 17.7549 11.3896 17.8486 11.8467 17.8486C12.251 17.8486 12.5967 17.7812 12.8838 17.6465C13.1768 17.5059 13.4229 17.3184 13.6221 17.084C13.8271 16.8496 13.9883 16.5801 14.1055 16.2754C14.2285 15.9707 14.3223 15.6514 14.3867 15.3174C14.457 14.9834 14.501 14.6465 14.5186 14.3066C14.542 13.9609 14.5537 13.6328 14.5537 13.3223V6.34375H18.043V12.7773C18.043 13.6973 17.8965 14.5527 17.6035 15.3438C17.3105 16.1348 16.8975 16.8232 16.3643 17.4092C15.8311 17.9893 15.1865 18.4463 14.4307 18.7803C13.6748 19.1084 12.8369 19.2725 11.917 19.2725C11.2842 19.2725 10.6953 19.1816 10.1504 19C9.60547 18.8242 9.10449 18.5811 8.64746 18.2705C8.19629 17.9541 7.79199 17.582 7.43457 17.1543C7.08301 16.7207 6.78711 16.249 6.54688 15.7393C6.3125 15.2295 6.13379 14.6934 6.01074 14.1309C5.8877 13.5625 5.83203 12.9883 5.84375 12.4082V12.2324C5.84961 11.7637 5.89648 11.2803 5.98438 10.7822C6.07227 10.2783 6.18945 9.77441 6.33594 9.27051C6.48828 8.7666 6.66992 8.26855 6.88086 7.77637C7.0918 7.27832 7.32617 6.80078 7.58398 6.34375H10.1416ZM31.1123 13.9023C31.1123 14.6406 31.001 15.332 30.7783 15.9766C30.5557 16.6211 30.2334 17.1836 29.8115 17.6641C29.3896 18.1387 28.874 18.5137 28.2646 18.7891C27.6553 19.0645 26.9639 19.2021 26.1904 19.2021C25.5986 19.2021 25.0537 19.0879 24.5557 18.8594C24.0635 18.625 23.6416 18.2676 23.29 17.7871V23.6846H20.3193V8.84863H21.4619L22.7803 11.0547C22.9092 10.6855 23.085 10.3516 23.3076 10.0527C23.5361 9.74805 23.7969 9.49023 24.0898 9.2793C24.3887 9.0625 24.7139 8.89551 25.0654 8.77832C25.4229 8.66113 25.7979 8.60254 26.1904 8.60254C26.9639 8.60254 27.6553 8.74023 28.2646 9.01562C28.874 9.29102 29.3896 9.66895 29.8115 10.1494C30.2334 10.624 30.5557 11.1836 30.7783 11.8281C31.001 12.4727 31.1123 13.1641 31.1123 13.9023ZM28.0977 13.9023C28.0977 13.6445 28.083 13.3721 28.0537 13.085C28.0303 12.792 27.9863 12.502 27.9219 12.2148C27.8574 11.9277 27.7666 11.6523 27.6494 11.3887C27.5381 11.125 27.3945 10.8936 27.2188 10.6943C27.043 10.4893 26.8291 10.3281 26.5771 10.2109C26.3311 10.0879 26.0439 10.0264 25.7158 10.0264C25.376 10.0264 25.0801 10.085 24.8281 10.2021C24.582 10.3193 24.3682 10.4805 24.1865 10.6855C24.0107 10.8848 23.8643 11.1162 23.7471 11.3799C23.6357 11.6377 23.5479 11.9102 23.4834 12.1973C23.4189 12.4844 23.3721 12.7744 23.3428 13.0674C23.3193 13.3604 23.3076 13.6387 23.3076 13.9023C23.3076 14.1367 23.3252 14.3975 23.3604 14.6846C23.3955 14.9658 23.4512 15.25 23.5273 15.5371C23.6035 15.8242 23.7031 16.1025 23.8262 16.3721C23.9492 16.6416 24.0986 16.8818 24.2744 17.0928C24.4561 17.3037 24.6641 17.4736 24.8984 17.6025C25.1387 17.7256 25.4111 17.7871 25.7158 17.7871C26.0498 17.7871 26.3398 17.7285 26.5859 17.6113C26.832 17.4883 27.043 17.3271 27.2188 17.1279C27.3945 16.9229 27.5381 16.6885 27.6494 16.4248C27.7666 16.1611 27.8574 15.8857 27.9219 15.5986C27.9863 15.3115 28.0303 15.0215 28.0537 14.7285C28.083 14.4355 28.0977 14.1602 28.0977 13.9023ZM42.3975 11.3623L41.1143 11.8721C40.9092 11.2275 40.5664 10.7324 40.0859 10.3867C39.6055 10.041 39.0283 9.86816 38.3545 9.86816C37.9912 9.86816 37.666 9.92676 37.3789 10.0439C37.0977 10.1553 36.8486 10.3105 36.6318 10.5098C36.4209 10.709 36.2393 10.9404 36.0869 11.2041C35.9404 11.4678 35.8203 11.749 35.7266 12.0479C35.6328 12.3467 35.5654 12.6572 35.5244 12.9795C35.4834 13.2959 35.4629 13.6035 35.4629 13.9023C35.4629 14.2246 35.4805 14.5498 35.5156 14.8779C35.5508 15.2061 35.6094 15.5225 35.6914 15.8271C35.7793 16.126 35.8936 16.4072 36.0342 16.6709C36.1748 16.9287 36.3506 17.1543 36.5615 17.3477C36.7783 17.541 37.0332 17.6934 37.3262 17.8047C37.625 17.916 37.9678 17.9717 38.3545 17.9717C38.665 17.9717 38.9609 17.9248 39.2422 17.8311C39.5234 17.7373 39.7812 17.6055 40.0156 17.4355C40.25 17.2656 40.458 17.0635 40.6396 16.8291C40.8213 16.5947 40.9648 16.334 41.0703 16.0469L42.3623 16.5215C42.1689 16.9844 41.9111 17.3857 41.5889 17.7256C41.2725 18.0596 40.9121 18.3379 40.5078 18.5605C40.1035 18.7773 39.6699 18.9385 39.207 19.0439C38.7441 19.1494 38.2754 19.2021 37.8008 19.2021C37.0332 19.2021 36.3213 19.0732 35.665 18.8154C35.0088 18.5518 34.4404 18.1855 33.96 17.7168C33.4854 17.2422 33.1133 16.6826 32.8438 16.0381C32.5742 15.3877 32.4395 14.6758 32.4395 13.9023C32.4395 13.123 32.5713 12.4082 32.835 11.7578C33.1045 11.1074 33.4766 10.5479 33.9512 10.0791C34.4258 9.61035 34.9912 9.24707 35.6475 8.98926C36.3037 8.73145 37.0215 8.60254 37.8008 8.60254C38.293 8.60254 38.7734 8.6582 39.2422 8.76953C39.7109 8.875 40.1445 9.04199 40.543 9.27051C40.9473 9.49316 41.3076 9.77734 41.624 10.123C41.9463 10.4688 42.2041 10.8818 42.3975 11.3623ZM54.8779 13.9023C54.8779 14.4297 54.8076 14.9248 54.667 15.3877C54.5264 15.8506 54.3301 16.2783 54.0781 16.6709C53.832 17.0635 53.5332 17.418 53.1816 17.7344C52.8301 18.0449 52.4434 18.3086 52.0215 18.5254C51.6055 18.7422 51.1572 18.9092 50.6768 19.0264C50.2021 19.1436 49.7129 19.2021 49.209 19.2021C48.7051 19.2021 48.2158 19.1436 47.7412 19.0264C47.2666 18.9092 46.8184 18.7422 46.3965 18.5254C45.9805 18.3086 45.5967 18.0449 45.2451 17.7344C44.8936 17.418 44.5918 17.0635 44.3398 16.6709C44.0938 16.2783 43.9004 15.8506 43.7598 15.3877C43.6191 14.9189 43.5488 14.4238 43.5488 13.9023C43.5488 13.3809 43.6191 12.8887 43.7598 12.4258C43.9004 11.957 44.0938 11.5264 44.3398 11.1338C44.5918 10.7412 44.8936 10.3896 45.2451 10.0791C45.5967 9.7627 45.9805 9.49609 46.3965 9.2793C46.8184 9.0625 47.2666 8.89551 47.7412 8.77832C48.2158 8.66113 48.7051 8.60254 49.209 8.60254C49.7129 8.60254 50.2021 8.66113 50.6768 8.77832C51.1572 8.89551 51.6055 9.0625 52.0215 9.2793C52.4434 9.49609 52.8301 9.7627 53.1816 10.0791C53.5332 10.3896 53.832 10.7412 54.0781 11.1338C54.3301 11.5264 54.5264 11.957 54.667 12.4258C54.8076 12.8887 54.8779 13.3809 54.8779 13.9023ZM51.8545 13.9023C51.8545 13.6211 51.8369 13.3252 51.8018 13.0146C51.7725 12.6982 51.7197 12.3906 51.6436 12.0918C51.5674 11.7871 51.4619 11.4971 51.3271 11.2217C51.1982 10.9404 51.0371 10.6973 50.8438 10.4922C50.6504 10.2812 50.4189 10.1143 50.1494 9.99121C49.8799 9.8623 49.5664 9.79785 49.209 9.79785C48.8691 9.79785 48.5674 9.8623 48.3037 9.99121C48.04 10.1201 47.8086 10.293 47.6094 10.5098C47.416 10.7207 47.252 10.9668 47.1172 11.248C46.9883 11.5293 46.8828 11.8223 46.8008 12.127C46.7188 12.4258 46.6602 12.7305 46.625 13.041C46.5898 13.3457 46.5723 13.6328 46.5723 13.9023C46.5723 14.1719 46.5898 14.4619 46.625 14.7725C46.6602 15.0771 46.7188 15.3818 46.8008 15.6865C46.8828 15.9912 46.9883 16.2842 47.1172 16.5654C47.252 16.8408 47.416 17.0869 47.6094 17.3037C47.8086 17.5146 48.04 17.6846 48.3037 17.8135C48.5674 17.9424 48.8691 18.0068 49.209 18.0068C49.5605 18.0068 49.8711 17.9453 50.1406 17.8223C50.4102 17.6934 50.6416 17.5234 50.835 17.3125C51.0342 17.1016 51.1982 16.8584 51.3271 16.583C51.4561 16.3076 51.5586 16.0176 51.6348 15.7129C51.7168 15.4082 51.7725 15.1006 51.8018 14.79C51.8369 14.4795 51.8545 14.1836 51.8545 13.9023ZM72.4648 13.0762C72.4648 13.7734 72.3828 14.5 72.2188 15.2559C72.0547 16.0117 71.8232 16.75 71.5244 17.4707C71.2314 18.1855 70.877 18.8623 70.4609 19.501C70.0449 20.1396 69.582 20.6934 69.0723 21.1621L67.9561 20.5557C68.126 20.251 68.2812 19.9082 68.4219 19.5273C68.5625 19.1465 68.6914 18.7451 68.8086 18.3232C68.9258 17.9014 69.0283 17.4678 69.1162 17.0225C69.2041 16.5771 69.2773 16.1348 69.3359 15.6953C69.4004 15.25 69.4473 14.8193 69.4766 14.4033C69.5059 13.9873 69.5205 13.5977 69.5205 13.2344C69.5205 13.0293 69.5146 12.8066 69.5029 12.5664C69.4912 12.3262 69.4648 12.0859 69.4238 11.8457C69.3887 11.6055 69.333 11.377 69.2568 11.1602C69.1807 10.9375 69.0752 10.7412 68.9404 10.5713C68.8115 10.3955 68.6475 10.2578 68.4482 10.1582C68.2549 10.0527 68.0205 10 67.7451 10C67.4756 10 67.2441 10.0732 67.0508 10.2197C66.8633 10.3604 66.7021 10.5449 66.5674 10.7734C66.4326 11.002 66.3242 11.2598 66.2422 11.5469C66.166 11.834 66.1074 12.124 66.0664 12.417C66.0254 12.7041 65.9961 12.9795 65.9785 13.2432C65.9668 13.5068 65.9609 13.7295 65.9609 13.9111V19H62.999V14.2715C62.999 14.0664 63.002 13.8203 63.0078 13.5332C63.0137 13.2402 63.0049 12.9355 62.9814 12.6191C62.9639 12.3027 62.9258 11.9893 62.8672 11.6787C62.8145 11.3623 62.7266 11.0811 62.6035 10.835C62.4863 10.5889 62.3252 10.3896 62.1201 10.2373C61.915 10.0791 61.6572 10 61.3467 10C61.083 10 60.8604 10.0732 60.6787 10.2197C60.5029 10.3662 60.3535 10.5566 60.2305 10.791C60.1133 11.0195 60.0195 11.2803 59.9492 11.5732C59.8848 11.8604 59.835 12.1504 59.7998 12.4434C59.7705 12.7305 59.7529 13.0059 59.7471 13.2695C59.7412 13.5273 59.7383 13.7412 59.7383 13.9111V19H56.7588V8.84863H57.9014L58.9912 11.2129C59.2373 10.3926 59.624 9.75391 60.1514 9.29688C60.6846 8.83398 61.3906 8.60254 62.2695 8.60254C63.0605 8.60254 63.7168 8.7666 64.2383 9.09473C64.7598 9.42285 65.1699 9.95605 65.4688 10.6943C65.6387 10.3721 65.8262 10.082 66.0312 9.82422C66.2422 9.56641 66.4736 9.34668 66.7256 9.16504C66.9834 8.9834 67.2676 8.8457 67.5781 8.75195C67.8887 8.65234 68.2314 8.60254 68.6064 8.60254C69.2979 8.60254 69.8867 8.7168 70.373 8.94531C70.8652 9.16797 71.2666 9.47852 71.5771 9.87695C71.8877 10.2754 72.1133 10.75 72.2539 11.3008C72.3945 11.8457 72.4648 12.4375 72.4648 13.0762ZM77.5625 6.39648C77.5625 6.61914 77.5186 6.83008 77.4307 7.0293C77.3486 7.22852 77.2344 7.40137 77.0879 7.54785C76.9414 7.69434 76.7686 7.81152 76.5693 7.89941C76.3701 7.98145 76.1592 8.02246 75.9365 8.02246C75.7139 8.02246 75.5029 7.98145 75.3037 7.89941C75.1104 7.81152 74.9404 7.69434 74.7939 7.54785C74.6475 7.40137 74.5303 7.22852 74.4424 7.0293C74.3604 6.83008 74.3193 6.61914 74.3193 6.39648C74.3193 6.17383 74.3604 5.96582 74.4424 5.77246C74.5303 5.57324 74.6475 5.40039 74.7939 5.25391C74.9404 5.10742 75.1104 4.99316 75.3037 4.91113C75.5029 4.82324 75.7139 4.7793 75.9365 4.7793C76.1592 4.7793 76.3701 4.82324 76.5693 4.91113C76.7686 4.99316 76.9414 5.10742 77.0879 5.25391C77.2344 5.40039 77.3486 5.57324 77.4307 5.77246C77.5186 5.96582 77.5625 6.17383 77.5625 6.39648ZM77.4307 19H74.4512V8.85742H77.4307V19ZM90.3066 13.1816C90.3066 13.8672 90.2217 14.582 90.0518 15.3262C89.8877 16.0703 89.6562 16.7998 89.3574 17.5146C89.0586 18.2295 88.7012 18.9004 88.2852 19.5273C87.8691 20.1602 87.4121 20.7051 86.9141 21.1621L85.7979 20.5557C85.9561 20.2627 86.1055 19.9346 86.2461 19.5713C86.3867 19.208 86.5127 18.8242 86.624 18.4199C86.7412 18.0098 86.8438 17.5879 86.9316 17.1543C87.0254 16.7207 87.1016 16.293 87.1602 15.8711C87.2246 15.4434 87.2715 15.0303 87.3008 14.6318C87.3359 14.2275 87.3535 13.8525 87.3535 13.5068C87.3535 13.2783 87.3447 13.0352 87.3271 12.7773C87.3096 12.5137 87.2715 12.2529 87.2129 11.9951C87.1602 11.7314 87.0869 11.4795 86.9932 11.2393C86.8994 10.999 86.7734 10.7881 86.6152 10.6064C86.4629 10.4248 86.2754 10.2783 86.0527 10.167C85.8359 10.0557 85.5781 10 85.2793 10C84.9863 10 84.7256 10.0674 84.4971 10.2021C84.2686 10.3311 84.0664 10.5039 83.8906 10.7207C83.7148 10.9316 83.5625 11.1748 83.4336 11.4502C83.3105 11.7256 83.208 12.0098 83.126 12.3027C83.0498 12.5898 82.9941 12.874 82.959 13.1553C82.9238 13.4365 82.9062 13.6885 82.9062 13.9111V19H79.9268V8.84863H81.0693L82.4316 11.2129C82.5957 10.8203 82.8008 10.4629 83.0469 10.1406C83.293 9.81836 83.5713 9.54297 83.8818 9.31445C84.1924 9.08594 84.5352 8.91016 84.9102 8.78711C85.291 8.66406 85.7012 8.60254 86.1406 8.60254C86.8438 8.60254 87.4561 8.7168 87.9775 8.94531C88.499 9.17383 88.9326 9.49316 89.2783 9.90332C89.624 10.3076 89.8818 10.791 90.0518 11.3535C90.2217 11.9102 90.3066 12.5195 90.3066 13.1816ZM102.488 17.7783C102.488 18.5869 102.368 19.3486 102.128 20.0635C101.888 20.7783 101.539 21.4023 101.082 21.9355C100.625 22.4746 100.062 22.8994 99.3945 23.21C98.7324 23.5264 97.9766 23.6846 97.127 23.6846C96.6582 23.6846 96.1836 23.6318 95.7031 23.5264C95.2285 23.4209 94.7773 23.2568 94.3496 23.0342C93.9277 22.8174 93.5469 22.5391 93.207 22.1992C92.873 21.8652 92.6094 21.4697 92.416 21.0127L93.6992 20.5293C93.8105 20.8164 93.9541 21.0801 94.1299 21.3203C94.3115 21.5605 94.5195 21.7656 94.7539 21.9355C94.9883 22.1113 95.2461 22.2461 95.5273 22.3398C95.8086 22.4395 96.1045 22.4893 96.415 22.4893C97.001 22.4893 97.4902 22.3691 97.8828 22.1289C98.2812 21.8887 98.6006 21.5752 98.8408 21.1885C99.0811 20.8018 99.2539 20.3623 99.3594 19.8701C99.4648 19.3838 99.5176 18.8887 99.5176 18.3848V17.7871C99.166 18.2676 98.7412 18.625 98.2432 18.8594C97.751 19.0879 97.209 19.2021 96.6172 19.2021C95.8438 19.2021 95.1523 19.0645 94.543 18.7891C93.9336 18.5137 93.418 18.1387 92.9961 17.6641C92.5742 17.1836 92.252 16.6211 92.0293 15.9766C91.8066 15.332 91.6953 14.6406 91.6953 13.9023C91.6953 13.1641 91.8066 12.4727 92.0293 11.8281C92.252 11.1836 92.5742 10.624 92.9961 10.1494C93.418 9.66895 93.9336 9.29102 94.543 9.01562C95.1523 8.74023 95.8438 8.60254 96.6172 8.60254C97.0098 8.60254 97.3818 8.66113 97.7334 8.77832C98.0908 8.89551 98.416 9.0625 98.709 9.2793C99.0078 9.49023 99.2686 9.74805 99.4912 10.0527C99.7197 10.3516 99.8984 10.6855 100.027 11.0547L101.346 8.84863H102.488V17.7783ZM99.5 13.9023C99.5 13.6387 99.4854 13.3604 99.4561 13.0674C99.4326 12.7744 99.3887 12.4844 99.3242 12.1973C99.2598 11.9102 99.1689 11.6377 99.0518 11.3799C98.9404 11.1162 98.7939 10.8848 98.6123 10.6855C98.4365 10.4805 98.2227 10.3193 97.9707 10.2021C97.7188 10.085 97.4258 10.0264 97.0918 10.0264C96.7578 10.0264 96.4678 10.0879 96.2217 10.2109C95.9756 10.3281 95.7646 10.4893 95.5889 10.6943C95.4131 10.8936 95.2666 11.125 95.1494 11.3887C95.0381 11.6523 94.9502 11.9277 94.8857 12.2148C94.8213 12.502 94.7744 12.792 94.7451 13.085C94.7217 13.3721 94.71 13.6445 94.71 13.9023C94.71 14.1602 94.7217 14.4355 94.7451 14.7285C94.7744 15.0215 94.8213 15.3115 94.8857 15.5986C94.9502 15.8857 95.0381 16.1611 95.1494 16.4248C95.2666 16.6885 95.4131 16.9229 95.5889 17.1279C95.7646 17.3271 95.9756 17.4883 96.2217 17.6113C96.4678 17.7285 96.7578 17.7871 97.0918 17.7871C97.3965 17.7871 97.666 17.7256 97.9004 17.6025C98.1406 17.4736 98.3486 17.3037 98.5244 17.0928C98.7061 16.8818 98.8584 16.6416 98.9814 16.3721C99.1045 16.1025 99.2041 15.8242 99.2803 15.5371C99.3564 15.25 99.4121 14.9658 99.4473 14.6846C99.4824 14.3975 99.5 14.1367 99.5 13.9023ZM121.763 9.48145L120.26 10.1143C120.143 9.7334 119.984 9.38477 119.785 9.06836C119.592 8.75195 119.357 8.48242 119.082 8.25977C118.812 8.03125 118.505 7.85547 118.159 7.73242C117.813 7.60352 117.436 7.53906 117.025 7.53906C116.586 7.53906 116.182 7.6123 115.812 7.75879C115.449 7.90527 115.121 8.10449 114.828 8.35645C114.541 8.60254 114.289 8.89258 114.072 9.22656C113.855 9.56055 113.674 9.91797 113.527 10.2988C113.387 10.6738 113.278 11.0635 113.202 11.4678C113.132 11.8721 113.097 12.2676 113.097 12.6543C113.097 13.2695 113.167 13.8818 113.308 14.4912C113.454 15.1006 113.683 15.6484 113.993 16.1348C114.31 16.6211 114.717 17.0166 115.215 17.3213C115.713 17.6201 116.316 17.7695 117.025 17.7695C117.412 17.7695 117.714 17.6846 117.931 17.5146C118.147 17.3389 118.256 17.0342 118.256 16.6006V12.7158H121.745V19H120.734L120.119 18.0068C119.557 18.4346 118.936 18.751 118.256 18.9561C117.582 19.1553 116.894 19.2549 116.19 19.2549C115.569 19.2549 114.972 19.1787 114.397 19.0264C113.829 18.874 113.299 18.6572 112.807 18.376C112.314 18.0947 111.866 17.7549 111.462 17.3564C111.063 16.958 110.721 16.5156 110.434 16.0293C110.152 15.543 109.933 15.0156 109.774 14.4473C109.622 13.873 109.546 13.2754 109.546 12.6543C109.546 12.0332 109.622 11.4385 109.774 10.8701C109.933 10.2959 110.152 9.76562 110.434 9.2793C110.721 8.78711 111.063 8.3418 111.462 7.94336C111.866 7.54492 112.314 7.20508 112.807 6.92383C113.299 6.64258 113.829 6.42578 114.397 6.27344C114.972 6.12109 115.569 6.04492 116.19 6.04492C116.788 6.04492 117.371 6.11523 117.939 6.25586C118.514 6.39648 119.047 6.61035 119.539 6.89746C120.031 7.17871 120.468 7.53613 120.849 7.96973C121.235 8.39746 121.54 8.90137 121.763 9.48145ZM134.146 19H131.176V17.7871C130.824 18.2676 130.399 18.625 129.901 18.8594C129.409 19.0879 128.867 19.2021 128.275 19.2021C127.502 19.2021 126.811 19.0645 126.201 18.7891C125.592 18.5137 125.076 18.1387 124.654 17.6641C124.232 17.1836 123.91 16.6211 123.688 15.9766C123.465 15.332 123.354 14.6406 123.354 13.9023C123.354 13.1641 123.465 12.4727 123.688 11.8281C123.91 11.1836 124.232 10.624 124.654 10.1494C125.076 9.66895 125.592 9.29102 126.201 9.01562C126.811 8.74023 127.502 8.60254 128.275 8.60254C128.668 8.60254 129.04 8.66113 129.392 8.77832C129.749 8.89551 130.074 9.0625 130.367 9.2793C130.666 9.49023 130.927 9.74805 131.149 10.0527C131.378 10.3516 131.557 10.6855 131.686 11.0547L133.004 8.84863H134.146V19ZM131.158 13.9023C131.158 13.6387 131.144 13.3604 131.114 13.0674C131.091 12.7744 131.047 12.4844 130.982 12.1973C130.918 11.9102 130.827 11.6377 130.71 11.3799C130.599 11.1162 130.452 10.8848 130.271 10.6855C130.095 10.4805 129.881 10.3193 129.629 10.2021C129.377 10.085 129.084 10.0264 128.75 10.0264C128.416 10.0264 128.126 10.0879 127.88 10.2109C127.634 10.3281 127.423 10.4893 127.247 10.6943C127.071 10.8936 126.925 11.125 126.808 11.3887C126.696 11.6523 126.608 11.9277 126.544 12.2148C126.479 12.502 126.433 12.792 126.403 13.085C126.38 13.3721 126.368 13.6445 126.368 13.9023C126.368 14.1602 126.38 14.4355 126.403 14.7285C126.433 15.0215 126.479 15.3115 126.544 15.5986C126.608 15.8857 126.696 16.1611 126.808 16.4248C126.925 16.6885 127.071 16.9229 127.247 17.1279C127.423 17.3271 127.634 17.4883 127.88 17.6113C128.126 17.7285 128.416 17.7871 128.75 17.7871C129.055 17.7871 129.324 17.7256 129.559 17.6025C129.799 17.4736 130.007 17.3037 130.183 17.0928C130.364 16.8818 130.517 16.6416 130.64 16.3721C130.763 16.1025 130.862 15.8242 130.938 15.5371C131.015 15.25 131.07 14.9658 131.105 14.6846C131.141 14.3975 131.158 14.1367 131.158 13.9023ZM152.34 13.0762C152.34 13.7734 152.258 14.5 152.094 15.2559C151.93 16.0117 151.698 16.75 151.399 17.4707C151.106 18.1855 150.752 18.8623 150.336 19.501C149.92 20.1396 149.457 20.6934 148.947 21.1621L147.831 20.5557C148.001 20.251 148.156 19.9082 148.297 19.5273C148.438 19.1465 148.566 18.7451 148.684 18.3232C148.801 17.9014 148.903 17.4678 148.991 17.0225C149.079 16.5771 149.152 16.1348 149.211 15.6953C149.275 15.25 149.322 14.8193 149.352 14.4033C149.381 13.9873 149.396 13.5977 149.396 13.2344C149.396 13.0293 149.39 12.8066 149.378 12.5664C149.366 12.3262 149.34 12.0859 149.299 11.8457C149.264 11.6055 149.208 11.377 149.132 11.1602C149.056 10.9375 148.95 10.7412 148.815 10.5713C148.687 10.3955 148.522 10.2578 148.323 10.1582C148.13 10.0527 147.896 10 147.62 10C147.351 10 147.119 10.0732 146.926 10.2197C146.738 10.3604 146.577 10.5449 146.442 10.7734C146.308 11.002 146.199 11.2598 146.117 11.5469C146.041 11.834 145.982 12.124 145.941 12.417C145.9 12.7041 145.871 12.9795 145.854 13.2432C145.842 13.5068 145.836 13.7295 145.836 13.9111V19H142.874V14.2715C142.874 14.0664 142.877 13.8203 142.883 13.5332C142.889 13.2402 142.88 12.9355 142.856 12.6191C142.839 12.3027 142.801 11.9893 142.742 11.6787C142.689 11.3623 142.602 11.0811 142.479 10.835C142.361 10.5889 142.2 10.3896 141.995 10.2373C141.79 10.0791 141.532 10 141.222 10C140.958 10 140.735 10.0732 140.554 10.2197C140.378 10.3662 140.229 10.5566 140.105 10.791C139.988 11.0195 139.895 11.2803 139.824 11.5732C139.76 11.8604 139.71 12.1504 139.675 12.4434C139.646 12.7305 139.628 13.0059 139.622 13.2695C139.616 13.5273 139.613 13.7412 139.613 13.9111V19H136.634V8.84863H137.776L138.866 11.2129C139.112 10.3926 139.499 9.75391 140.026 9.29688C140.56 8.83398 141.266 8.60254 142.145 8.60254C142.936 8.60254 143.592 8.7666 144.113 9.09473C144.635 9.42285 145.045 9.95605 145.344 10.6943C145.514 10.3721 145.701 10.082 145.906 9.82422C146.117 9.56641 146.349 9.34668 146.601 9.16504C146.858 8.9834 147.143 8.8457 147.453 8.75195C147.764 8.65234 148.106 8.60254 148.481 8.60254C149.173 8.60254 149.762 8.7168 150.248 8.94531C150.74 9.16797 151.142 9.47852 151.452 9.87695C151.763 10.2754 151.988 10.75 152.129 11.3008C152.27 11.8457 152.34 12.4375 152.34 13.0762ZM156.761 14.1836C157.124 14.2656 157.487 14.3301 157.851 14.377C158.214 14.4238 158.58 14.4473 158.949 14.4473C159.336 14.4473 159.693 14.4121 160.021 14.3418C160.355 14.2656 160.643 14.1426 160.883 13.9727C161.129 13.7969 161.322 13.5654 161.463 13.2783C161.604 12.9912 161.674 12.6338 161.674 12.2061C161.674 11.8604 161.627 11.5439 161.533 11.2568C161.439 10.9697 161.299 10.7236 161.111 10.5186C160.93 10.3135 160.704 10.1553 160.435 10.0439C160.165 9.92676 159.852 9.86816 159.494 9.86816C159.16 9.86816 158.858 9.92969 158.589 10.0527C158.325 10.1758 158.091 10.3428 157.886 10.5537C157.687 10.7588 157.514 10.999 157.367 11.2744C157.227 11.5498 157.109 11.8369 157.016 12.1357C156.922 12.4346 156.854 12.7363 156.813 13.041C156.772 13.3457 156.752 13.6328 156.752 13.9023C156.752 13.9492 156.752 13.9961 156.752 14.043C156.752 14.0898 156.755 14.1367 156.761 14.1836ZM164.082 12.1797C164.082 12.5957 164.015 12.9678 163.88 13.2959C163.745 13.6182 163.561 13.9023 163.326 14.1484C163.098 14.3945 162.831 14.6025 162.526 14.7725C162.222 14.9424 161.896 15.083 161.551 15.1943C161.205 15.2998 160.848 15.376 160.479 15.4229C160.115 15.4697 159.761 15.4932 159.415 15.4932C158.976 15.4932 158.542 15.4639 158.114 15.4053C157.687 15.3408 157.265 15.2412 156.849 15.1064C156.913 15.4932 157.016 15.8623 157.156 16.2139C157.297 16.5596 157.484 16.8643 157.719 17.1279C157.953 17.3857 158.24 17.5908 158.58 17.7432C158.926 17.8955 159.333 17.9717 159.802 17.9717C160.112 17.9717 160.408 17.9248 160.689 17.8311C160.971 17.7373 161.229 17.6055 161.463 17.4355C161.697 17.2656 161.902 17.0635 162.078 16.8291C162.26 16.5947 162.406 16.334 162.518 16.0469L163.801 16.5215C163.607 16.9844 163.341 17.3857 163.001 17.7256C162.667 18.0596 162.286 18.3379 161.858 18.5605C161.437 18.7773 160.985 18.9385 160.505 19.0439C160.03 19.1494 159.559 19.2021 159.09 19.2021C158.316 19.2021 157.602 19.0732 156.945 18.8154C156.289 18.5518 155.724 18.1855 155.249 17.7168C154.774 17.248 154.402 16.6885 154.133 16.0381C153.863 15.3877 153.729 14.6758 153.729 13.9023C153.729 13.1289 153.863 12.417 154.133 11.7666C154.402 11.1162 154.774 10.5566 155.249 10.0879C155.724 9.61914 156.289 9.25586 156.945 8.99805C157.602 8.73438 158.316 8.60254 159.09 8.60254C159.465 8.60254 159.849 8.62891 160.241 8.68164C160.634 8.73438 161.015 8.81934 161.384 8.93652C161.753 9.04785 162.102 9.19434 162.43 9.37598C162.758 9.55762 163.042 9.7832 163.282 10.0527C163.528 10.3164 163.722 10.624 163.862 10.9756C164.009 11.3271 164.082 11.7285 164.082 12.1797ZM174.673 15.7568C174.673 16.2021 174.608 16.5977 174.479 16.9434C174.351 17.2891 174.175 17.5908 173.952 17.8486C173.729 18.1006 173.466 18.3145 173.161 18.4902C172.856 18.6602 172.528 18.7979 172.177 18.9033C171.831 19.0088 171.468 19.085 171.087 19.1318C170.706 19.1787 170.328 19.2021 169.953 19.2021C169.449 19.2021 169.004 19.1699 168.617 19.1055C168.23 19.041 167.861 18.9385 167.51 18.7979C167.158 18.6514 166.807 18.4639 166.455 18.2354C166.109 18.0068 165.723 17.7285 165.295 17.4004L167.026 15.9854C167.185 16.2842 167.393 16.5566 167.65 16.8027C167.914 17.043 168.187 17.251 168.468 17.4268C168.749 17.6025 169.021 17.7373 169.285 17.8311C169.549 17.9248 169.763 17.9717 169.927 17.9717C170.062 17.9717 170.214 17.9688 170.384 17.9629C170.554 17.9512 170.727 17.9336 170.902 17.9102C171.078 17.8809 171.251 17.8398 171.421 17.7871C171.591 17.7344 171.74 17.6641 171.869 17.5762C172.004 17.4824 172.109 17.3682 172.186 17.2334C172.268 17.0928 172.309 16.9258 172.309 16.7324C172.309 16.5332 172.256 16.3604 172.15 16.2139C172.051 16.0615 171.919 15.9297 171.755 15.8184C171.591 15.707 171.403 15.6133 171.192 15.5371C170.981 15.4609 170.768 15.3936 170.551 15.335C170.34 15.2764 170.135 15.2266 169.936 15.1855C169.736 15.1387 169.563 15.0947 169.417 15.0537C169.147 14.9775 168.863 14.9014 168.564 14.8252C168.266 14.7432 167.97 14.6523 167.677 14.5527C167.384 14.4473 167.103 14.3242 166.833 14.1836C166.569 14.043 166.335 13.876 166.13 13.6826C165.931 13.4834 165.77 13.252 165.646 12.9883C165.529 12.7188 165.471 12.4053 165.471 12.0479C165.471 11.3916 165.6 10.8438 165.857 10.4043C166.121 9.95898 166.467 9.60449 166.895 9.34082C167.322 9.07129 167.809 8.88086 168.354 8.76953C168.898 8.6582 169.452 8.60254 170.015 8.60254C170.401 8.60254 170.809 8.64355 171.236 8.72559C171.664 8.80176 172.08 8.91895 172.484 9.07715C172.889 9.22949 173.267 9.41699 173.618 9.63965C173.97 9.8623 174.263 10.1172 174.497 10.4043L172.766 11.8281C172.637 11.4766 172.467 11.1748 172.256 10.9229C172.051 10.6709 171.825 10.4658 171.579 10.3076C171.339 10.1436 171.09 10.0234 170.832 9.94727C170.58 9.87109 170.346 9.83301 170.129 9.83301C169.918 9.83301 169.681 9.8418 169.417 9.85938C169.153 9.87695 168.904 9.92676 168.67 10.0088C168.441 10.0908 168.245 10.2168 168.081 10.3867C167.923 10.5508 167.844 10.7793 167.844 11.0723C167.844 11.2832 167.891 11.4648 167.984 11.6172C168.084 11.7637 168.213 11.8926 168.371 12.0039C168.529 12.1094 168.708 12.2002 168.907 12.2764C169.112 12.3467 169.32 12.4111 169.531 12.4697C169.742 12.5225 169.947 12.5693 170.146 12.6104C170.346 12.6514 170.524 12.6953 170.683 12.7422C170.952 12.8184 171.236 12.8975 171.535 12.9795C171.84 13.0557 172.139 13.1465 172.432 13.252C172.725 13.3516 173.006 13.4717 173.275 13.6123C173.551 13.7471 173.791 13.9141 173.996 14.1133C174.201 14.3125 174.365 14.5469 174.488 14.8164C174.611 15.0801 174.673 15.3936 174.673 15.7568Z" fill="#5D5FEF"/>
</g>
<defs>
<filter id="filter0_d_719_1270" x="0.726545" y="0.0196454" width="179.046" height="29.1045" filterUnits="userSpaceOnUse" color-interpolation-filters="sRGB">
<feFlood flood-opacity="0" result="BackgroundImageFix"/>
<feColorMatrix in="SourceAlpha" type="matrix" values="0 0 0 0 0 0 0 0 0 0 0 0 0 0 0 0 0 0 127 0" result="hardAlpha"/>
<feOffset dy="0.339975"/>
<feGaussianBlur stdDeviation="2.54981"/>
<feComposite in2="hardAlpha" operator="out"/>
<feColorMatrix type="matrix" values="0 0 0 0 0.423529 0 0 0 0 0.8 0 0 0 0 0.894118 0 0 0 0.49 0"/>
<feBlend mode="normal" in2="BackgroundImageFix" result="effect1_dropShadow_719_1270"/>
<feBlend mode="normal" in="SourceGraphic" in2="effect1_dropShadow_719_1270" result="shape"/>
</filter>
</defs>
</svg>
